<svg width="420" height="230"><path fill="#fff" d="M234.49 219.79V10.11h.63v209.68h-.63M249.39 182.6c1 3.35 3 4.89 6.51 4.89 3 0 5.57-1.72 5.57-4.83 0-2.63-1-3.9-6.18-5.82-3.37-1.27-3.72-2.15-3.72-3.39 0-2.15 1.47-3.37 3.6-3.37a4.46 4.46 0 0 1 4.41 3.44l1.44-.43a5.76 5.76 0 0 0-5.85-4.37c-3.39 0-5.27 2-5.27 4.73 0 6.05 9.9 4.12 9.9 9a3.39 3.39 0 0 1-3.65 3.64c-2.88 0-4.51-1.21-5.21-4l-1.54.48zm26.71 4.63v-1.37h-9.24v-7.44h6.31v-1.36h-6.31v-6.74h8.76V169h-10.43v18.28zm3.32 0h1.67V169h-1.67v18.28zm5.14-16.91H290v16.91h1.67v-16.91h5.42V169h-12.5v1.36zM314 187.23v-1.37h-3V168.7h-1.06l-4.1 1.34v1l3.49-.51v15.34h-3.14v1.37zm1.77-3.39c1 2.48 3.19 3.64 6.15 3.64 3.62 0 6.25-1.57 6.25-5.42 0-2.51-1.47-3.85-3.49-4.61 2.12-1 2.93-2.2 2.93-4.3 0-3.42-3.16-4.45-5.52-4.45a6.88 6.88 0 0 0-5.52 2.88l1.19.86c1.27-1.6 2.5-2.38 4.2-2.38 2.45 0 4 1 4 3.24 0 2.43-1.72 3.55-5 3.55h-1.37v1.36h1.67c3.45 0 5.27 1.27 5.27 3.9s-1.44 4-4.51 4a4.66 4.66 0 0 1-4.88-3l-1.34.76zm21.87-15.14c-3.47 0-5.72 1.57-5.72 4.63 0 2 1.21 3.47 3.49 4.28-3.14 1.42-4.2 3.09-4.2 4.91 0 3.65 2.63 5 6.43 5s6.43-1.31 6.43-5c0-1.82-1.06-3.49-4.2-4.91 2.28-.81 3.5-2.28 3.5-4.28 0-3.06-2.25-4.63-5.72-4.63zm-4.76 13.82c0-2 1.77-3 4.76-4.21 3 1.22 4.76 2.23 4.76 4.21 0 2.49-2.07 3.6-4.76 3.6s-4.76-1.11-4.76-3.6zm.71-9.27c0-2.15 1.67-3.19 4.05-3.19s4.05 1 4.05 3.19c0 2-1.77 3.09-4.05 3.7-2.28-.61-4.05-1.72-4.05-3.7zm24.73-3a7.08 7.08 0 0 0-4.32-1.55c-5.17 0-7.29 5.44-7.29 10 0 4.21 1.19 8.73 6.28 8.73 3.32 0 6.18-2.17 6.18-5.67s-2.15-6-5.88-6a6.82 6.82 0 0 0-4.91 2.43c0-3.47 1.42-8.15 5.59-8.15a4.43 4.43 0 0 1 3.6 1.39l.76-1.24zm-.84 11.32c0 2.83-1.62 4.58-4.46 4.58s-4.61-2.1-4.61-5.39c0-.66 1.9-3.57 4.58-3.57a4.15 4.15 0 0 1 4.48 4.38zM250.53 143.75h8.76l-9.55 15.55v1.36h11.75v-1.36h-9.67l9.54-15.5v-1.42h-10.83v1.36zm14.66-1.36v12.3c0 4.15 2.17 6.23 6.61 6.23s6.61-2.07 6.61-6.23v-12.3h-1.67v12.46c0 3.49-1.7 4.71-4.94 4.71s-4.94-1.21-4.94-4.71v-12.46zm18.28 18.28h1.67v-6.1l3.45-4 5.8 10.07h1.87l-6.61-11.29 5.9-7h-2.05l-8.36 9.92v-9.92h-1.67v18.28zm15.47-18.28v12.3c0 4.15 2.17 6.23 6.61 6.23s6.61-2.07 6.61-6.23v-12.3h-1.67v12.46c0 3.49-1.7 4.71-4.94 4.71s-4.94-1.21-4.94-4.71v-12.46zm18.28 18.28h1.67v-16.92l9.78 16.91h1.72v-18.27h-1.67v15.24h-.05L320 142.39h-2.81v18.28zm19.95 0v-8.81h6.61v-1.36h-6.61v-6.74h9.07v-1.36h-10.73v18.28zm10.67-16.91h5.42v16.91h1.67v-16.92h5.42v-1.36h-12.5v1.36zM253.4 134.16V126h7.35v8.19h3.64v-19.11h-3.64v7.61h-7.35v-7.61h-3.64v19.07zm28.35 0v-3.06h-9.27v-5.34H279v-3.06h-6.53v-4.55h9v-3.06h-12.63v19.07zm7.21 0v-19.08h-3.64v19.07zm4.66 0h6.31c5 0 8.53-2.8 8.56-9.54s-3.51-9.54-8.56-9.54h-6.31v19.07zm3.64-16h2.43c4.18 0 5.16 3.06 5.16 6.47s-1 6.47-5.16 6.47h-2.43v-12.95zm27.06 16v-3.06h-9.28v-5.34h6.53v-3.06h-6.53v-4.55h9v-3.06h-12.63v19.07zm15 0v-3.06H331v-16h-3.64v19.07zm2.75 0h7c4.86 0 6.95-2.06 6.95-5s-.85-4-3.33-5a4.25 4.25 0 0 0 2.9-4.33c-.21-3.41-2.67-4.68-6.47-4.68h-7.08v19.07zm3.64-8.51h3.65c2.12 0 3 1 3 2.78s-.92 2.77-3 2.77h-3.65v-5.55zm0-7.61h3.65c1.75 0 2.62 1 2.62 2.32s-.87 2.33-2.62 2.33h-3.65V118zm27.06 16.12v-3.06h-9.27v-5.34h6.5v-3.06h-6.53v-4.55h9v-3.06h-12.6v19.07zm6.71 0v-7.77h3.15l3.59 7.77h4l-4.2-8.51a4.72 4.72 0 0 0 3.49-4.91c0-3.15-1.77-5.65-6.1-5.65h-7.61v19.07zm0-16.12h3.33c2 0 3.09.9 3.09 2.7s-.87 2.7-3.73 2.7h-2.7V118zm27.59 1.64a6.74 6.74 0 0 0-6.92-4.86c-6.11 0-8 5.23-8 10.09 0 5.39 2.4 9.51 7.59 9.51a6 6 0 0 0 5-2.22v2h2.64v-9.64h-7.13v3.06h3.62a3.77 3.77 0 0 1-4 3.78c-2.54 0-4-2.54-4-6.55 0-4.23 1.32-6.92 4-6.92 1.9 0 3 .79 3.83 2.7l3.38-.9zM260.75 99.88c0 3.09-1.22 4.18-3.67 4.18s-3.67-1.08-3.67-4.18v-12.1h-3.64v11.95c0 5.58 3.43 7.4 7.32 7.4s7.32-1.82 7.32-7.4V87.78h-3.64v12.1zm11.44 7v-13.6h.05l7.8 13.58h3.51V87.78h-3.43v13h-.05l-7.51-13h-3.8v19.08zm19.71 0v-19.1h-3.65v19.08zm7.9 0h4.07l5-19.08h-3.59l-3.54 14.06h-.05l-3.38-14.06h-3.59l5 19.08zm24.52 0v-3.08h-9.28v-5.35h6.53v-3.06h-6.53v-4.55h9v-3.06h-12.63v19.08zm6.71 0v-7.79h3.15l3.59 7.77h4l-4.2-8.51a4.72 4.72 0 0 0 3.49-4.92c0-3.15-1.77-5.65-6.1-5.65h-7.61v19.08zm0-16.12h3.33c2 0 3.09.9 3.09 2.7s-.87 2.7-3.73 2.7H331v-5.42zm26.32 1.08a6.94 6.94 0 0 0-6.74-4.3c-3.3 0-6.15 1.93-6.15 5.34 0 5.87 9.83 5.13 9.83 8.88 0 1.85-1.4 2.54-3.23 2.54-2.14 0-3.28-1.19-4.15-3l-3 1.32a7.56 7.56 0 0 0 7.13 4.52c4.23 0 6.68-2 6.68-5.86 0-6.19-9.83-5.5-9.83-8.78 0-1.48 1.14-2.11 2.72-2.11a3.51 3.51 0 0 1 3.39 2.46l3.33-1zm8 15V87.78h-3.64v19.08zm3.12-19.08v3.06h5v16h3.64v-16h5v-3.04zm20.85 3.67h.05l2.14 8.27H387l2.25-8.27zm-7.8 15.41h3.62l1.13-4.12h6l1.05 4.12h3.62l-5.42-19.08H387l-5.5 19.08zm3.65-23.46v3.06h3.17v-3.05zm5 0v3.06h3.17v-3.05zm6.21 4.39v3.06h5v16H405v-16h5v-3.05z"></path><circle cx="114.87" cy="115.03" r="104.87" fill="#e80036"></circle><path d="M103.33 59.79h1.15v-1.15h1.16v-1.15h-1.16v-1.16h-1.15v1.15h-1.15v1.15h1.15zm20.37 67h1.15v-.92h.92v-1.15h-.92v-.92h-1.15v.92h-.92v1.15h.92zm-24.7-67h1.15v-1.15h1.15v-1.15h-1.2v-1.16H99v1.15h-1.2v1.15H99zm25.77 101.35c1.28 8.36 1.56 16.22 2.49 20.28l1.12-.26c-.89-3.84-1.19-11.78-2.48-20.2zm-11.57-45.8a2.5 2.5 0 0 0-2.86.89l.39.39a2.08 2.08 0 0 1 1.61-.89 1.87 1.87 0 0 1 1.77 1.67v1.35h.55v-1.43a2.45 2.45 0 0 0-1.52-1.98zm3.48 0a2.46 2.46 0 0 0-1.47 2v1.43h.56v-1.37a1.87 1.87 0 0 1 1.77-1.67 2.08 2.08 0 0 1 1.61.89l.39-.39a2.5 2.5 0 0 0-2.91-.89zm.93 1.24c-1 0-1.39.39-1.39.76h1.15a.4.4 0 0 0-.26.36.46.46 0 0 0 .92 0 .39.39 0 0 0-.24-.35h1.12c-.05-.35-.64-.78-1.35-.78zm8.95 40.69zm13.62-76.74L139 78.75l-1.11 1.78 1.11 1.78zM139 121.16a2.79 2.79 0 1 0-2.8-2.8 2.8 2.8 0 0 0 2.8 2.8zm0-5a2.21 2.21 0 1 1-2.22 2.21 2.21 2.21 0 0 1 2.22-2.22zm-.55 3.69h1.15v-.92h.92v-1.15h-.92v-.92h-1.15v.92h-.92v1.15h.92zm-20.1-60h1.15v-1.21h1.16v-1.15h-1.16v-1.16h-1.15v1.15h-1.15v1.15h1.15zm-4 0h1.15v-1.21h1.15v-1.15h-1.15v-1.16h-1.2v1.15h-1.16v1.15h1.16zm-4.1 0h1.15v-1.21h1.16v-1.15h-1.16v-1.16h-1.2v1.15H109v1.15h1.15zm2.2 56.72c-1 0-1.39.39-1.39.76h1.17a.4.4 0 0 0-.26.36.46.46 0 0 0 .92 0 .39.39 0 0 0-.25-.35h1.11c-.04-.43-.63-.84-1.34-.84zm10.55 41.2a3.09 3.09 0 0 0-.17-1 .9.9 0 0 0-.82-.6 1.73 1.73 0 0 0-1.09.6c-.3.28-.6.61-.9.9a5.59 5.59 0 0 1-3.83 1.54 5.32 5.32 0 0 1-3.3-1.14 3.46 3.46 0 0 0-2-1.07 1.14 1.14 0 0 0-1 .73 3.76 3.76 0 0 0-.21 1.43v.13c0 .36.21 1.55.53 3.37.47 2.69 1.23 6.59 2 10.07.4 1.74.83 3.38 1.23 4.72a11.77 11.77 0 0 0 1.23 3 2.65 2.65 0 0 0 2.13 1.24 2.69 2.69 0 0 0 2.46-2.25c.26-1 1.73-7.51 2.74-13.3a.49.49 0 0 0 0-.07c.3-1.73.56-3.39.74-4.84a28.71 28.71 0 0 0 .24-3.1c.02-.13.02-.27.02-.36zm-4.84 21.32c-.28 1-.85 1.39-1.35 1.39a1.51 1.51 0 0 1-1.19-.76 3.27 3.27 0 0 1-.32-.58 22.82 22.82 0 0 0 4-6.06l.33-.67c-.68 3.36-1.3 6.09-1.46 6.69zm.11-6.52a25.29 25.29 0 0 1-3.42 5.41c-.23-.66-.47-1.45-.71-2.32v-.06a28.77 28.77 0 0 0 6.54-8.86 37.85 37.85 0 0 1-2.4 5.84zm3.37-11.66a29.49 29.49 0 0 1-7.85 13.43c-.7-2.77-1.39-6.08-1.93-8.91s-1-5.33-1-6a15.22 15.22 0 0 0 4 6.54l.75-.86a10.86 10.86 0 0 1-2-2.39 6.88 6.88 0 0 0 1.85.24 7.86 7.86 0 0 0 5.14-1.73l-.81-.81a6.88 6.88 0 0 1-4.33 1.4 4.11 4.11 0 0 1-2.83-.89 12.29 12.29 0 0 1-.84-2.32l.39.33a6.46 6.46 0 0 0 4 1.38 6.73 6.73 0 0 0 4.62-1.86c.34-.32.65-.66.9-.9l.12-.11v.61a25.09 25.09 0 0 1-.17 2.86zm-15.49-3.68c-1 5.87-2 15-6.19 22.68l1 .55c4.36-7.92 5.37-17.23 6.32-23.05zm1.21 12.11c-.18 4.81-.79 9.65-2.68 11.79l.87.75c2.26-2.68 2.74-7.63 3-12.5s.08-9.68.73-11.66l-1.09-.36c-.8 2.42-.62 7.15-.83 11.98zM112.47 41l-1.11-1.78-1.12 1.78 1.11 1.78zm29.58-18.71l-2.52-.75-.83 2.79-2.79-.83-.75 2.5 2.79.83-.83 2.8 2.52.75.83-2.79 2.79.83.74-2.52-2.79-.83zM159 98.74L157.89 97l-1.11 1.78 1.11 1.78zm50.16 1.89l.09.73-6.48.84a.63.63 0 0 1-.61-.25h-.08a14.16 14.16 0 0 1-1.11 2.66l2 1.46.22-.3c-.7-.45-.5-.8 0-1.81l6.37-.83.19 1.45.92.29-.24-1.85 2.73-.36v-.19a6.83 6.83 0 0 1-3.54-1.92zm1.29-17.91l-2.32-.87a7.1 7.1 0 0 1-.66.36 18.6 18.6 0 0 0 2.11 1.4 4.7 4.7 0 0 0 .87-.9zM148 146.39v1l2.61-1.71 1.09 1.37-3 2.32.54.81 3.13-2.39.73.85-1.19 1 .64.64 2-1.58-.93-1.09 1.73-1.58-.76-2.34.56-.38v-.61h-1.6l.89 3-.58.46-1.07-1.33V142h-2.44v.84l.54.61-.54.4-1.65-1.85h-.76v.48l2.06 2.42zm-.37-47.7l1.11 1.78 1.11-1.78-1.11-1.78zm62.52 9.21l-6.67.33c-.54 0-.61-.28-.61-.28h-.09l-1.17 1.75L203 111h.08a1.64 1.64 0 0 1 .34-.92l6.8-.33a.59.59 0 0 1 .52.24h.09l1.26-1.7a7.38 7.38 0 0 1-1.41-1.33h-.08s.09.91-.46.94zm-10.66-18.77h-.08a14.18 14.18 0 0 1-.73 2.79l2.16 1.17.18-.33c-.76-.34-.61-.72-.31-1.78l6.19-1.72.39 1.41 1 .15-.5-1.8 2.65-.74-.05-.19a6.88 6.88 0 0 1-3.77-1.4l-.35.1.2.71-6.3 1.74a.62.62 0 0 1-.68-.11zm2.5 11.75h.08c-.08-.4 0-1 .15-1l6.86-1.37a.6.6 0 0 1 .62.2h.08a16.49 16.49 0 0 1 .28-2.48c-1.22-.48-1.52-2.89-3.19-2.56l-5.49 1.1a.59.59 0 0 1-.55-.16h-.09l-.92 2.21 1.44 1.18-.86 1.81a9.59 9.59 0 0 1 1.6 1.08zm-.26-4.38l6.76-1.35a6.14 6.14 0 0 0-.2 1.65L202 98.07l-.64-.54zm4.81 21.69a.58.58 0 0 1 .5.28h.1l.93-1.89 2.6 1.83a9.59 9.59 0 0 1 1.63-2.18 16.79 16.79 0 0 1-1.3-3.13l-2.83-.07a.61.61 0 0 1-.55-.33h-.08l-1.21 2.12-3.26-2.25a8.33 8.33 0 0 1-1.28 2.44 15.26 15.26 0 0 1 1.59 3.12zm1.59-3.35l3.07.07.07.14a14.29 14.29 0 0 0-1.69 2.13l-2-1.49zm-5.3 1.25a13 13 0 0 0 1.33-2.25l2.61 1.77-.41.8-3.39-.08zM176 100.47l1.11-1.78-1.11-1.78-1.11 1.78zm-75.62 112.3a4.81 4.81 0 0 0 .35 1.2l1.89-1.61v-.76a18.94 18.94 0 0 0-2.23 1.17zm65.36-114.08l1.11 1.78 1.15-1.78-1.11-1.78zm-66.6 109.68c.07-.38 1.15-6 1.26-6.56s.42-.53.42-.53v-.09l-1.43-1.55-1.56 1.08v.08a1.64 1.64 0 0 1 .82.54s-1.21 6.33-1.28 6.68a.58.58 0 0 1-.35.45v.09l1.36 1.63a7.46 7.46 0 0 1 1.62-1.06v-.07s-1-.14-.86-.69zm12 1.61s.5-6.1.54-6.52a.62.62 0 0 1 .37-.54v-.08l-2.3-1.81-3.23 1.77-.59 7.05a.58.58 0 0 1-.31.49v.09c1.77 1.4 3.22 2.66 5 4.27a7.23 7.23 0 0 1 1.5-1.33v-.08c-.49 0-3-2.32-3-2.32zm-3.39-.17l.63-7.59h.05l1.44 1.07-.6 7.23-.43.23zm-5.9-8.37v.07a1.62 1.62 0 0 1 .84.51s-.92 6.38-1 6.73a.6.6 0 0 1-.34.47v.09l1.42 1.56a7.39 7.39 0 0 1 1.57-1.12v-.08s-.95-.11-.87-.66c0-.38.88-6.07 1-6.6s.4-.55.4-.55v-.09l-1.49-1.49zm17.22 1.72a.59.59 0 0 1 .26-.52v-.09l-2.28-1.32a29.57 29.57 0 0 1-3.17 2.17s.06 6.21.06 6.62a.62.62 0 0 1-.31.57v.08l1.45 1.15 1.27-1.27v-.06l-.59-.43-.07-7.45.27-.17 1.32.81s.06 6.05.06 6.6-.31.6-.31.6v.09l1.71 1.24 1.32-1.37v-.07a1.63 1.63 0 0 1-.9-.38s-.06-6.43-.06-6.79zm31-7l-.33-.21-.47.71a4.67 4.67 0 0 1-3.56 2l-5-.07a4.31 4.31 0 0 1-.17 2.67h2.45l-.41.62a5.15 5.15 0 0 1-4.23 2.37h-2.8a2.3 2.3 0 0 1 .21 1.14c0 1-.43 1.22-.43 1.22h2.32a3.17 3.17 0 0 0 1.48-.4 6.46 6.46 0 0 0-1.37 3.37v1.16a7.78 7.78 0 0 1 2.88-.25v-2.32a8.37 8.37 0 0 1 .88-4l1.94-2.9a6.65 6.65 0 0 0 3.58-1v4.92a3.33 3.33 0 0 1-2.06 1h-2.52a6.31 6.31 0 0 1 0 2.19 4.9 4.9 0 0 0 2.63-.49A7 7 0 0 0 145 210a4.47 4.47 0 0 1 2.17 0v-3a4.23 4.23 0 0 1 .2-1.52h2.76v-.46c-.55 0-.76-.45-.83-1.64v-2.22c0-1.47-.06-3.46.8-4.75zm-17.6 9.35v-.08l-2.28-.85 1.7-3.58a8.37 8.37 0 0 1-2.62-.88 15.62 15.62 0 0 1-2.82 2.07l.43 3.15a.58.58 0 0 1-.19.54v.1l2 .62-1.39 2.85a9.37 9.37 0 0 1 2.4 1.26 16.65 16.65 0 0 1 2.89-1.8s-.33-2.39-.39-2.81a.62.62 0 0 1 .35-.54zm-3.86-.64l-.46-3.35.2-.17a13.53 13.53 0 0 0 2.44.95l-1.34 2.86zm2.11 4.64a14.57 14.57 0 0 0-2.37-1.33l1.14-2.25.94.45.43 3zm-6.16-.08s-.35-6.11-.38-6.53a.6.6 0 0 1 .28-.58v-.08A14.48 14.48 0 0 1 122 201l-1.59 1.86.27.25c.51-.68.84-.45 1.81.07l.37 6.42-1.47.08-.35.9 1.87-.1.15 2.74h.2a6.81 6.81 0 0 1 2.16-3.39v-.36zm42.63-175l.63-1-1-.65-.63.95-.95-.63-.65 1 1 .63-.64 1 1 .65.63-.95.95.63.65-1zM199 87.76a1.67 1.67 0 0 1 0-1l6.36-2.41a.59.59 0 0 1 .57.07h.09l.67-2a7.34 7.34 0 0 1-1.74-.83h-.07s.37.89-.16 1.09L198.54 85c-.51.19-.67-.08-.67-.08h-.09l-.57 2 1.73.76zm1.21 71a3.86 3.86 0 0 0 .33-2.16 5.76 5.76 0 0 1-2.83 0v2.75a5.17 5.17 0 0 1-.38 2.34 21.26 21.26 0 0 1-2.47 0l.1 5.09a5.47 5.47 0 0 1-.76 3.2h-3.21a5.7 5.7 0 0 0-3.39 1 9 9 0 0 0 1.13-4.12v-3.14a3.63 3.63 0 0 1 2-.79h2.38a7.48 7.48 0 0 1 0-2.56 6.13 6.13 0 0 0-2 .21 3.9 3.9 0 0 0 .33-2.16 5.83 5.83 0 0 1-2.84 0v2.75a4.44 4.44 0 0 1-.42 2.41l-.05.07a2.32 2.32 0 0 1-1.93.66v4.36c0 .88.17 3.18-.4 4.38l-1.47 2.21.35.2s1.47-2.94 4.47-2.94h6.66a3.46 3.46 0 0 1 .25-2.48h-1.3a13.89 13.89 0 0 0 1.38-1.49 4.07 4.07 0 0 1 2.44-1.13H201a7.38 7.38 0 0 1 0-2.56c-1.77 0-2.43.14-3.41 1.28a4.07 4.07 0 0 0 .24-1.32v-2.84a3.58 3.58 0 0 1 2-.79h2.37a7.5 7.5 0 0 1 0-2.56 6.17 6.17 0 0 0-1.97.13zm-6.5-85.29l5.74-3.12.4.11a11.9 11.9 0 0 1-1.11 2.1v.08a6.89 6.89 0 0 1 1.87.35h.09l1-2.23-1.7-.61.42-1.88a9.54 9.54 0 0 1-1.84-.58h-.07c.19.36.28.93.14 1l-5.9 3.21a.63.63 0 0 1-.65 0l-.1.1a14.87 14.87 0 0 1-.08 2.88l2.37.65.1-.35c-.78-.18-.72-.6-.66-1.71zM211 126a3.42 3.42 0 0 0 .32-2 5.2 5.2 0 0 1-2.55 0v2.46a4.53 4.53 0 0 1-.35 2.12 5.18 5.18 0 0 1-2.76.77v.44c.58 0 .84.95.84 1.52v.85c0 1.33 0 3.84-.55 4.69l-.75 1.19-3.61 5.45-2 3v.07-7l.94-1.42a3.6 3.6 0 0 1 2.16-1h1.64a6.57 6.57 0 0 1 0-2.32 6.94 6.94 0 0 0-1.19.07 3.79 3.79 0 0 0 .35-2.16 5.75 5.75 0 0 1-2.79 0v2.7a5.18 5.18 0 0 1-.36 2.28l-.89 1.34c-.28.31-1.08.94-3.12.94v.45c.59 0 .85.94.85 1.52v6.69c0 1.33 0 3.84-.56 4.69-.26.41-.79 1.17-.79 1.17l.31.19s.68-.92 1.48-2.13l.23-.36a5.84 5.84 0 0 1 4.47-2.49h2.39a2.57 2.57 0 0 1 .85-2.1c-2.85 0-4.61-.34-6.28 1.77l-.17.25a7.45 7.45 0 0 0 .42-2.41l.47-.71a6.55 6.55 0 0 1 5-2.7h2.71a2.9 2.9 0 0 1 .94-2.36 3.16 3.16 0 0 1 1.79-.7h2.08a6.56 6.56 0 0 1 0-2.24 5.35 5.35 0 0 0-1.77.19 3.38 3.38 0 0 0 .3-1.89 5.1 5.1 0 0 1-2.48 0v2.41a3.9 3.9 0 0 1-.36 2.11l-.07.09c-2.23 0-3.85-.14-5.28.8l2.69-4.06.15-.23 1.11-1.68.16-.24v-.08l.19-.28a3.82 3.82 0 0 1 2.36-1.12h2.61a7.35 7.35 0 0 1 0-2.51c-1.91 0-2.76.16-3.93 1.63a8.1 8.1 0 0 0 .61-3v-2a4.66 4.66 0 0 1 2.36-.75h1.58a6.7 6.7 0 0 1 0-2.3 5.4 5.4 0 0 0-1.75.39zm-20.43-58.45l2-1.26a22.63 22.63 0 0 1 3.88 1.12h.08l1.58-3.06a16.74 16.74 0 0 1-2.93-1.84l-5.65 3.63a.63.63 0 0 1-.64 0h-.07a18.75 18.75 0 0 1 .19 3.54l2.43.48v-.37c-.81-.07-.76-.79-.87-2.24zm5.8-3.73l-1.31 2.66s-1.17-.31-2-.5zm3.89 17.4a.61.61 0 0 1 .58 0h.09v-2.11l3.13.56a9.63 9.63 0 0 1 .56-2.67 16.62 16.62 0 0 1-2.51-2.29l-2.6 1.14a.62.62 0 0 1-.64-.07h-.08l-.2 2.43-3.91-.66a8.21 8.21 0 0 1-.13 2.76 15.58 15.58 0 0 1 2.76 2.15zm0-3.7l2.81-1.23.12.1a14.74 14.74 0 0 0-.64 2.65l-2.47-.49zm-4 3.52l-.23-.16a13.33 13.33 0 0 0 .26-2.61l3.11.52v.89zm-9.17 49.72h-1.15v.92H185v1.15h.92v.92h1.15v-.92h.93v-1.15h-.92zm26.51-22.63s-.57.13-.74.14a19.15 19.15 0 0 0 1.57 2 4.65 4.65 0 0 0 1.11-.58zm-98.71-98A104.87 104.87 0 1 0 219.74 115 104.87 104.87 0 0 0 114.87 10.16zm11.29 23.17c.9.12 1.8.26 2.7.42v6l-2.7-4.14zm3.62 157.31l-1 .92v1.15h1.14v1.17h-1.14V195h-1.2v-1.14h-1.14v-1.16h1.14v-1.15l-1-.92h-3.5l-1 .92v1.15h1.15v1.17h-1.15V195h-1.16v-1.14h-1.14v-1.16h1.14v-1.14l-1-.93h-3.39l-1 .93v1.14h1.14v1.17h-1.14V195h-1.17v-1.14h-1.14v-1.16h1.14v-1.15l-1-.92h-3.48l-1 .93v1.14h1.1v1.17h-1.14V195h-1.17v-1.14h-1.14v-1.16h1.14v-1.15l-1-.92h-3.47l-1 .93v1.14h1.15v1.17h-1.15V195H101v-1.14h-1.13v-1.16H101v-1.13l-1-.94H90c.4.4 3.49 3.13 5.07 4.53a82.2 82.2 0 0 1-8.15-2.46v-1.47l.64-.57 2-1.75h17.92a2.9 2.9 0 0 0 1.71 1h.32a5.79 5.79 0 0 0 1.14-.13 3.09 3.09 0 0 0 1-.33 9.2 9.2 0 0 0 .81-.52h8.23a5.48 5.48 0 0 0 .47.4 3.87 3.87 0 0 0 2.31.78 4 4 0 0 0 1.94-.51 1.41 1.41 0 0 0 .55-.68h14.26l2.57 2.25v1.59l-.57.23q-3.72 1.3-7.59 2.25l4.44-4.56zM131 196a82.94 82.94 0 0 1-32.36 0zM106.79 55.4v5.06H96.71V55.4zm-6-1.15V46a1.24 1.24 0 0 1 .41-.88 1.47 1.47 0 0 1 1-.39 1.29 1.29 0 0 1 1.3 1.27v8.23zm3.86-8.25a1.48 1.48 0 0 1 .33-1 .88.88 0 0 1 .67-.34 1.09 1.09 0 0 1 .77.37 1.37 1.37 0 0 1 .37.93v8.23h-2.14V46zm10.14 9.37h6.31v5.06h-12.55V55.4zm-6.24-1.15V46a1.23 1.23 0 0 1 1.06-1.3 1 1 0 0 1 .73.36 1.4 1.4 0 0 1 .36.94v8.23zm3.29 0V46a1.22 1.22 0 1 1 2.44 0v8.23zm3.6 0V46a1.19 1.19 0 1 1 2.37 0v8.23zm-.57 39.47h-.08a17 17 0 0 0-3.52.39l3.58-5.49 3.6 5.5a17.19 17.19 0 0 0-3.58-.37zm2.94 1.44v6.15a13 13 0 0 0-2.39-.32v-6.1a16.1 16.1 0 0 1 2.39.29zm-3.54-.28V101a13.18 13.18 0 0 0-2.71.41v-6.2a16.15 16.15 0 0 1 2.71-.33zm.57-8.36l-5.24 8c-.35.12-.7.24-1 .38v-2.09l6.29-9.64 6.26 9.56v2.23c-.33-.13-.66-.25-1-.36zm0-8.75l6.26 9.48v3.38l-6.25-9.6-6.29 9.64v-3.22zm-6.3-8.68a1.38 1.38 0 0 1 1.32-1.21 1.31 1.31 0 0 1 1.26 1.3v12.21l-2.58 4zm5.74 1.52v4.52h-2v-5.91A1.44 1.44 0 0 1 113 68a3 3 0 0 1 1.33-.47v1.25a1.1 1.1 0 0 0 0 1.88zM114 76.9l-1.76 2.7v-3.72A5.16 5.16 0 0 0 114 76.9zm1.4-8.16V67.5a3 3 0 0 1 1.25.46 1.45 1.45 0 0 1 .68 1.23v5.94h-1.93v-4.52a1.1 1.1 0 0 0 0-1.87zm1.93 7.14v3.63l-1.73-2.62a5.15 5.15 0 0 0 1.77-1.01zm1.15 5.37V69.19a1.33 1.33 0 0 1 1.28-1.3 1.35 1.35 0 0 1 1.3 1.23v16.05zm.52 14.17a16.26 16.26 0 0 1 2.36.84v6.41a13.3 13.3 0 0 0-2.36-1zm2.14-41.17H119V46a1.48 1.48 0 0 1 .33-1 .88.88 0 0 1 .67-.34 1.1 1.1 0 0 1 .77.36 1.35 1.35 0 0 1 .37.92zm0 7.36v5.52a2.47 2.47 0 0 0-1.3-.38 2.44 2.44 0 0 0-1.83.86 2.76 2.76 0 0 0-.62-.59 4.18 4.18 0 0 0-1.91-.68v-.64h1v-1.15h-1v-1h-1.15v1h-1v1.15h1v.63a4.25 4.25 0 0 0-2 .69 2.86 2.86 0 0 0-.62.58 2.4 2.4 0 0 0-1.81-.86 2.51 2.51 0 0 0-1.32.39v-5.52zM110.41 95.5v6.25a13.14 13.14 0 0 0-2.31 1.1v-6.47a15.93 15.93 0 0 1 2.31-.88zm4.46 6.62a12 12 0 0 1 8.43 3.46 11.45 11.45 0 0 1 3.49 8.14c0 4.52-2.74 8.23-7 10.48 0-.24 0-.49.07-.75a14.73 14.73 0 0 1 1.68-4.21 1.67 1.67 0 0 0 1.52-.66 1.59 1.59 0 0 0 .06-1.54 1.83 1.83 0 0 0 1.24-1.37 1.55 1.55 0 0 0-1.12-1.73 1.62 1.62 0 0 0 .27-1.67 1.65 1.65 0 0 0-1.77-.95s.19-.7-.7-1.23-1.38-.23-1.38-.23a1.31 1.31 0 0 0-.74-.69 2.12 2.12 0 0 0-1.07-.08 1.48 1.48 0 0 0-.82-.41 1.59 1.59 0 0 0-1 .14 1.58 1.58 0 0 0-2.38 0s-.17-.25-.83-.24a1.18 1.18 0 0 0-1 .51 1.21 1.21 0 0 0-1.05 0 1.5 1.5 0 0 0-.76.82s-.43-.38-1.39.21a1.39 1.39 0 0 0-.69 1.25 1.61 1.61 0 0 0-1.56.61 1.66 1.66 0 0 0 0 1.91 1.46 1.46 0 0 0-1.09 1.59 1.79 1.79 0 0 0 1.27 1.6 2.18 2.18 0 0 0 .17 1.51 1.84 1.84 0 0 0 1.59.66c.12.46.88 3.49 1 4.69-.74-.48-1.31-.88-1.31-.89a11.11 11.11 0 0 1-1.69-17.48 12 12 0 0 1 8.56-3.46zm24.72-32.26v-1h-1.15v1h-1V71h1v3.35l-2.87 4.36V56.57l6.72 10.17v11.75l-2.71-4.13V71h1v-1.15zm-.59 5.71l3.28 5v2.9a2.6 2.6 0 0 0-3.35.52 2.57 2.57 0 0 0-2-.91 2.63 2.63 0 0 0-1.41.42v-2.7zm3.28 9.82v26.83l-2.77-4.22V85.53a1.41 1.41 0 0 1 1.42-1.29 1.38 1.38 0 0 1 1.37 1.15zm-6.72.14a1.39 1.39 0 0 1 1.41-1.3 1.36 1.36 0 0 1 1.37 1.29V108l-2.79 4.25V85.53zm3.36 23.67l3.36 5.12v9.8a2.5 2.5 0 0 0-1.34-.4 2.69 2.69 0 0 0-2 .94 2.77 2.77 0 0 0-2-.94 2.61 2.61 0 0 0-1.31.36v-9.74zm.57 70.47V154h2.79v18l-2.68 4.77v2.92zm.1 6.13v1.31h-.78a1.84 1.84 0 0 0 .21-.23 4.34 4.34 0 0 0 .59-1.08zm-.1-34.39v-25.25a1.24 1.24 0 0 1 .43-.9 1.54 1.54 0 0 1 1-.4 1.31 1.31 0 0 1 1.32 1.3v25.25zm-2.63-26.55a1.58 1.58 0 0 1 1 .4 1.2 1.2 0 0 1 .44.89v25.25h-2.79v-25.57a1.28 1.28 0 0 1 1.37-.97zm1.5 29.14v24.63l-.37-.33a10.43 10.43 0 0 1-2.33-2.78v-.06l-.08-.09V154zm-1.14 25.15c.85.78 1.69 1.46 2.14 1.9a38.07 38.07 0 0 1-.65 3.79 3.62 3.62 0 0 1-.57 1.29.83.83 0 0 1-.71.37.94.94 0 0 1-.77-.37c-.69-.75-.83-3-.81-4.06V181a8.14 8.14 0 0 1-3.15-1.81c-1.14-1.15-2.3-3.2-2.9-7.17-.21-1.37-.43-4.41-.77-7.46a32.8 32.8 0 0 0-1.49-7.76l-1.05.46a32.22 32.22 0 0 1 1.39 7.42c.34 3 .56 6 .78 7.5.62 4.12 1.86 6.44 3.22 7.8a7.79 7.79 0 0 0 2.87 1.81 8.18 8.18 0 0 0-.93 1.14 29.51 29.51 0 0 1-2.25 2.89 3.82 3.82 0 0 1-2.41 1.48 1.67 1.67 0 0 1-1.22-.61 8.09 8.09 0 0 0-5.64-2.84 5.47 5.47 0 0 0-3.71 1.49 2.9 2.9 0 0 1-1.91.85 3.42 3.42 0 0 1-2.35-1.18c-.31-.3-1-1-.92-.86a5.44 5.44 0 0 0-1.54-1.06 5.08 5.08 0 0 0-1.66-.3 5.45 5.45 0 0 0-2.1.42 13.11 13.11 0 0 0-3.57 2.36 4.21 4.21 0 0 1-2.69 1.16 3.55 3.55 0 0 1-2.76-1.51 6.14 6.14 0 0 0-1.45-1.52 2.36 2.36 0 0 0-1.28-.37c1.94-4.86 5-14.17 5.88-17.81.52-2.11 1-4.23 1.56-6.3.44-1.6 1.15-3.82 2.86-5a6.87 6.87 0 0 1 2.25-.43 3.15 3.15 0 0 1 1.1.17 21 21 0 0 1 3.24 1.86 7.74 7.74 0 0 0 3.81 1.44c2.55 0 5.19-1.52 6-1.83.23-.11.5-.26.79-.43a8.42 8.42 0 0 0 1-.48l.28-.16a3.91 3.91 0 0 1 1.59-.38 2.64 2.64 0 0 1 .93.16 2.38 2.38 0 0 1 1 1.07c1.09 1.85 1.9 5.48 2.22 7.31.43 2.48 1.07 6.45 1.9 9.55a14.84 14.84 0 0 0 1.13 2.75 9.19 9.19 0 0 0 .68 1.11l.12.15a11.59 11.59 0 0 0 2.52 3.11zm-1.22 7.96h-4a15.93 15.93 0 0 0 1.37-1.52c.55-.7 1-1.4 1.46-2a9.81 9.81 0 0 0 .26 1.7 4 4 0 0 0 .76 1.59 1.73 1.73 0 0 0 .15.23zm-9.25 0h-.83a6.13 6.13 0 0 0-.38-1 9.88 9.88 0 0 1 1.19 1zm-2.94-1.66a5.18 5.18 0 0 1 1.12 2.61.79.79 0 0 1-.1.44v.07a2.83 2.83 0 0 1-1.34.34 2.7 2.7 0 0 1-1.64-.56 6.36 6.36 0 0 1-1.55-1.79c-.17-.27-.29-.52-.38-.7a4.2 4.2 0 0 1 2.48-.83h.09l.8 2.24 1.08-.38zm-4.55 1.66H118a4.49 4.49 0 0 0 1-.53c0 .16.12.34.24.53zm-3.81 0h-2.12c0-.37.06-.79.08-1.22v-.19l.17.15a5.53 5.53 0 0 0 1.85 1.26zm-4.32.36l.93-2.81.24.14v1a13.09 13.09 0 0 1-.15 1.69 1.17 1.17 0 0 1-.42.46c-.24.19-.52.34-.72.47a2.74 2.74 0 0 1-.59.17 4.81 4.81 0 0 1-.91.11h-.18a2.18 2.18 0 0 1-1.24-.93 1.4 1.4 0 0 1-.2-.82 4.62 4.62 0 0 1 .93-2.62 1.23 1.23 0 0 1 .16-.17 3.82 3.82 0 0 1 .68-.17h.49a3.15 3.15 0 0 1 .59.07l.32.1-1 3zm-4.43-.36h-2.25a7.8 7.8 0 0 0 .88-.64 18.84 18.84 0 0 1 1.7-1.3 5.47 5.47 0 0 0-.34 1.81s-.01.09-.01.13zm-16-6.62a36.14 36.14 0 0 0 6.18-8.42c2.23-4.05 3.63-9.48 4.3-11.69a8.88 8.88 0 0 1 2.74-4.6 15.57 15.57 0 0 0-1.18 3.15c-.59 2.11-1 4.23-1.56 6.33a180.36 180.36 0 0 1-6.31 18.82 16.59 16.59 0 0 0-.83 1.46 2 2 0 0 1-1.25 1 1 1 0 0 1-.25 0c-.38 0-.83-.31-1.23-1.37a14.46 14.46 0 0 1-.64-4.68zm.42 6.62h-1v-2q.07.25.16.5a4 4 0 0 0 .82 1.5zm3-33.07v20.4a35.33 35.33 0 0 1-2.79 3.77V154zm-2.79-2.63v-25.25a1.22 1.22 0 0 1 .42-.9 1.56 1.56 0 0 1 1-.4 1.34 1.34 0 0 1 1.35 1.25v25.3zm2.79-39.18L91.29 108V85.53a1.32 1.32 0 0 1 1.35-1.3 1.54 1.54 0 0 1 1 .4 1.23 1.23 0 0 1 .42.89zm11.13 10.86a2.21 2.21 0 0 1 2.2 2.13l-.65.21.16.54a1 1 0 0 1 0 .3c0 .36-.21.48-.52.51a.61.61 0 0 1-.6-.47l-.06-.18v-.24h.92v-1.15h-.92v-.92h-1.15v.92h-.92v1.15h.92v.21l-1.27.43a2.18 2.18 0 0 1-.37-1.21 2.22 2.22 0 0 1 2.23-2.23zm-.11-.58v-.57c.19.21.39.41.6.61a2.76 2.76 0 0 0-.49 0zm3 3.76v-.07l.57-.19 1.39 3.91-.49.18a1.66 1.66 0 0 0-1.39-.74 1.8 1.8 0 0 0-1.81 1.75l-.62.21-1.35-4 .59-.19a1.75 1.75 0 0 0 1.44.75 1.7 1.7 0 0 0 1.14-.43 1.62 1.62 0 0 0 .51-1.18zm-.33-2.05l.88.59-.69.19a2.81 2.81 0 0 0-.21-.78zm12.19-5.06h-.6a3.79 3.79 0 0 1-.44 1c-.28.45-.29.29-.81 1a5 5 0 0 0-1.72-.91v-1h-.49v1h-.29v-.24h-.38v.4a.35.35 0 0 1-.69 0v-.44h-.37v.28h-.3v-1.05h-.55v1a4.47 4.47 0 0 0-1.54.78 2.43 2.43 0 0 1-1.57-1.92h-.34a20 20 0 0 1-.89-3.37c.36-.32 1.31-1.21 1.27-1.65a1.51 1.51 0 0 0 1 .4 1.67 1.67 0 0 0 1.32-.69 1.69 1.69 0 0 0 2.28-.4c.27.27.57.7 1.08.7a3.77 3.77 0 0 0 1.2-.29 1.52 1.52 0 0 0 1.32.69c.93 0 1-.4 1-.4s1.15 1.19 1.6 1.63a21.67 21.67 0 0 1-1.09 3.48zm1.61 7v.84q-.68-.89-1.35-1.71c.47-.24.91-.51 1.35-.79a2.8 2.8 0 0 0-.12.82 2.87 2.87 0 0 0 .1.8zm-.59 2a10.34 10.34 0 0 1-1.32 1.19 3.58 3.58 0 0 0-1.59 2.49 1.75 1.75 0 0 0 0 .34 17 17 0 0 0 .83 2.24c.69 1.64 1.7 3.91 2.67 5.86.48 1 1 1.86 1.38 2.56a4.57 4.57 0 0 0 1.19 1.48 3.58 3.58 0 0 0 1.4.82c1.49.45 2.66.76 3.27 2.06l1-.48c-.87-1.84-2.58-2.25-4-2.68l-.15-.06v-.28a28.42 28.42 0 0 1 .49-4.09l-1.13-.2a34 34 0 0 0-.49 3.71 4.31 4.31 0 0 1-.47-.74 14.35 14.35 0 0 1-1.12-5c-.16-1.84-.18-3.59-.37-4.73l-1.13.19c.2 1.14.2 3.38.46 5.61-.26-.55-.52-1.11-.77-1.66-.53-1.17-1-2.3-1.37-3.17a16.65 16.65 0 0 1-.6-1.61.81.81 0 0 1 0-.14c0-.43.47-1 1.18-1.61.43-.38.91-.71 1.28-1.12 4.36 5.94 8.74 13.46 9.58 17.07a4.54 4.54 0 0 1 .07.83 4.83 4.83 0 0 1-2 3.75 8.4 8.4 0 0 1-1 .68v-.44a4.06 4.06 0 0 0-.72-2.47 4.16 4.16 0 0 0-.92-.84 5.24 5.24 0 0 0-2.62-1.07H123.63c-.06 0-.3-.08-.61-.42-1.09-1.19-2.46-4.69-3.56-8.23-1-3.25-1.86-6.59-2.29-8.4a10 10 0 0 0 1.17-.59 2.45 2.45 0 0 0 1.1-1.45 5.31 5.31 0 0 0 .17-1.08q.71.73 1.39 1.63zm3.26-5a2.21 2.21 0 1 1-2.21 2.21 2.21 2.21 0 0 1 2.19-2.26zm-.19-.57c.12-.12.25-.23.37-.36v.35h-.37zm3.46-21.59v9.68a12.62 12.62 0 0 0-2-4.21V99a18.33 18.33 0 0 1 2 2zm-1.89-3.45l1.89-2.94v4.67a19.33 19.33 0 0 0-1.89-1.7zm1.89 28.72v9.45c-.63-1-1.3-2.1-2-3.15v-4.81a2.8 2.8 0 0 0 0-4.92v-2a12.11 12.11 0 0 0 2-4.11v7.61a2.74 2.74 0 0 0 0 2zm-3.11 1.8v2.82c-.56-.82-1.13-1.62-1.7-2.4v-.87a2.74 2.74 0 0 0 1.52.45zm5.85 23.31a5.88 5.88 0 0 0 2.21-4.38 6 6 0 0 0-.09-1 19.11 19.11 0 0 0-1.09-3.07v-15a2.8 2.8 0 0 0 1.63-2.39v25.94zm2.66 2.63v13.77c-.39-2-.72-4-1-5.45a37.61 37.61 0 0 0-1.26-5.17 13.46 13.46 0 0 0-1.09-2.53 6.86 6.86 0 0 0-.43-.64zm-4.25-53.42v-6l4.25 6.47v8a23.8 23.8 0 0 0-4.26-8.43zm4.25 16.75v7.79a2.79 2.79 0 0 0-1.63-2.39v-15a29.38 29.38 0 0 1 1.62 9.63zM130.17 105v17.48a2.79 2.79 0 0 0-1.47.42v-20.4a21.34 21.34 0 0 1 1.47 2.5zm-1.47-12.53v-4l4.24 6.53v4zm0-6.06v-7.05a2.06 2.06 0 0 1 2.08-2 2.14 2.14 0 0 1 2.17 2v13.55zm2.08-10.27a3.25 3.25 0 0 0-2.7 1.44 3.46 3.46 0 0 0-2.81-1.44 3.71 3.71 0 0 0-2.36.87L128.2 69l4.74 7.23V77a3.4 3.4 0 0 0-2.17-.82zm-.61 46.93a2.21 2.21 0 1 1-2.21 2.21 2.21 2.21 0 0 1 2.2-2.17zm0 5v12.3c-.45-.87-.94-1.78-1.47-2.72v-10a2.77 2.77 0 0 0 1.47.42zm-5.87 23.7l-4 2.43a1.94 1.94 0 0 1-.33-.17l4.11-2.65-.62-1-4.26 2.75a1.87 1.87 0 0 1-.12-.58l4.22-2.53-.59-1-3.17 1.9a2.9 2.9 0 0 1 1-1c.31-.18.35-.19 3.58-2.26h.12a7.07 7.07 0 0 1 1.88.81 3.3 3.3 0 0 1 1.14 2.49 2.5 2.5 0 0 1-.1.75l-2.55 1.56a11 11 0 0 0-1.24.65 5.94 5.94 0 0 1-1 .32l2.54-1.53zm-9.93 1h-.34a2.92 2.92 0 0 1-2.65-2.84 3 3 0 0 1 0-.42 3 3 0 0 1 3.06-2.61 4.15 4.15 0 0 1 .66.06l.35.06.21-.3a2.52 2.52 0 0 1 2.17-1.17 4 4 0 0 1 1.81.47 2.67 2.67 0 0 1 1.38 2.24l-.41.26v-.06a2.4 2.4 0 0 0-1-1.91 2.44 2.44 0 0 0-1.52-.54 2.67 2.67 0 0 0-2.46 1.64 2.3 2.3 0 0 0-1.19-.32 2.62 2.62 0 0 0-2.59 2.16 3 3 0 0 0 0 .43 2.36 2.36 0 0 0 .74 1.77 2.48 2.48 0 0 0 1.69.64 2.67 2.67 0 0 0 .51 0 2.69 2.69 0 0 0 2.62 2.54 2.37 2.37 0 0 0 1-.2l.28-.15a3.53 3.53 0 0 0 .46.41 3.4 3.4 0 0 1-1 .33 4.46 4.46 0 0 1-.81.08 2.91 2.91 0 0 1-2.83-2.15zm0 2.33l-.51-.31c-.54-.33-1.08-.69-1.62-1h1.28a4.9 4.9 0 0 0 .87 1.4zm-14.92-32a2.21 2.21 0 1 1-2.21 2.21 2.22 2.22 0 0 1 2.21-2.21zm-.09-.58v-17.14a21.6 21.6 0 0 1 1.6-2.76V123a2.74 2.74 0 0 0-1.51-.45zm1.6 5.14v11.42l-.88 1.64c-.26.49-.5 1-.72 1.4v-14h.09a2.77 2.77 0 0 0 1.55-.47zm-2.27 19.13v-.1a24.71 24.71 0 0 1 2.38-5.45c1.2-2.27 2.72-4.92 4.29-7.42l1.33 3.91 2.63-.92-.12-.51a.82.82 0 0 1 0-.23.62.62 0 0 1 .64-.62c.24 0 .42.08.56.46l.18.55c-.67 1.91-1.75 4.55-2.3 6a2.27 2.27 0 0 0-.53-.06 4.13 4.13 0 0 0-2.86 1.56 37.59 37.59 0 0 1 1.29-5.88l-1.07-.41a46 46 0 0 0-1.83 11.09 5.29 5.29 0 0 0 .2 1.7 2.2 2.2 0 0 0 2 1.64 5.25 5.25 0 0 0 3-1.4 5.94 5.94 0 0 1-3.56 2.85 1.94 1.94 0 0 1-.61.09 6 6 0 0 1-3.78-2.06 6.49 6.49 0 0 1-2-4.07 2.46 2.46 0 0 1 .16-.72zm8.84-15.68a.64.64 0 0 1 .66-.6c.24 0 .41.07.54.47a1 1 0 0 1 0 .23.64.64 0 0 1-.65.62c-.24 0-.4-.07-.55-.47a.75.75 0 0 1 0-.25zm.55 1.86a1.79 1.79 0 0 0 1.8-1.77l.55-.2 1.36 3.82-.3.1-.29.09a1.7 1.7 0 0 0-1.4-.74A1.78 1.78 0 0 0 108 136l-.61.22-1.29-3.82.59-.21a1.67 1.67 0 0 0 1.39.81zm6.9-5.76h.54a3.57 3.57 0 0 0 3-1.9 12 12 0 0 1-.19 1.81 1.27 1.27 0 0 1-.62.8c-.34.22-.85.43-1.47.73l-.41.2.1.45c.11.49.27 1.16.47 1.93a2.21 2.21 0 0 1-1.41.53 2.49 2.49 0 0 1-1.72-.45c.23-.76.42-1.43.55-1.91l.14-.5-.48-.19a3.8 3.8 0 0 1-2.27-2.16c0-.24-.1-.59-.18-.95a6.47 6.47 0 0 1 0-.78 4.41 4.41 0 0 0 3.97 2.39zm-1.44-4.69h2.7a1.38 1.38 0 0 1-2.7 0zm4.46 18.32c-.47-2.15-1.05-5.07-1.53-8.22l.32-.17c.46 1.8 1.07 4 1.74 6.12a26.69 26.69 0 0 1 .9 6.15 6.25 6.25 0 0 0-.62-.17h.06s-.42-1.44-.87-3.71zm-1.47-1.38a7 7 0 0 0-.49-.77 1.67 1.67 0 0 0-1.24-.81.86.86 0 0 0-.26 0l-.21.06c.14-1 .43-3.32.49-5h.46c.4 2.38.82 4.63 1.21 6.51zm-3.91-5.94l.33-1a3.1 3.1 0 0 0 .73.31c0 .92-.13 2.06-.24 3.07zm.48 4.81l-.48.14-.83-2.42.17-.05.33-.11zm-.48-8.73c-.16.57-.37 1.31-.62 2.12l-.52-1.47-.85-2.4a5.16 5.16 0 0 0 1.94 1.75zm-1 9.58a8.15 8.15 0 0 0-.88 1.37 5.49 5.49 0 0 1-1 1.48c.43-1.11 1-2.57 1.51-3.91zm-3.92 4.39a25.55 25.55 0 0 0-1.87 2.23c-.47.62-.92 1.24-1.29 1.78 0-.41.07-.85.12-1.3.91-1.58 2.12-2.66 2.97-2.71zm2.61 5.63l.07-.07v.28a4.6 4.6 0 0 0 0 .58 3.9 3.9 0 0 0 1.12 2.73H108.68a6.67 6.67 0 0 0 1.57-3.52zm.49-1.8c-.36.25-.69.48-.95.68l-.33.27c-.06.08-.11.09-.18.19-1.85 1.81-3.14 2.46-3.75 2.43-.45 0-.69-.21-1-.9a2.26 2.26 0 0 1-.1-.52c.46-.59 1.26-1.8 2.22-3.08a11.48 11.48 0 0 1 3.16-3.22 4.42 4.42 0 0 0 1.85-2.18c.43-.82.87-1.45 1.21-1.52l1.87-.54a1.66 1.66 0 0 1 .35.39l-1.26.54.45 1.06 1.39-.59c.07.15.14.3.19.45l-1.37.56.43 1.06 1.32-.54c0 .16.09.31.13.47l-1.27.47.4 1.07 1.07-.4v.2a1.26 1.26 0 0 1-.06.45c-.62.21-2.69 1.21-3.91 1.86-.45.34-1.23.85-1.93 1.34zm9.78-3.34c.17.38.34.73.51 1.07a8.66 8.66 0 0 0 1.16 1.77 3.64 3.64 0 0 0 .43.41l-.5.32a3.72 3.72 0 0 0-1.59-2.39v-.43s-.06-.46-.07-.75zm-1.28 5.48a4.23 4.23 0 0 0-.45.52l-.88-.07-.41.92.66.37a4 4 0 0 0-.24 1.28 3 3 0 0 0 .16 1l-.14.08a1.28 1.28 0 0 1-.5.1 1.47 1.47 0 0 1-1-.46 1.44 1.44 0 0 1-.45-1 .94.94 0 0 1 .25-.64l-.79-.83a1.8 1.8 0 0 1-1.11.4A1.2 1.2 0 0 1 113 150a1.93 1.93 0 0 1 0-.26 1.49 1.49 0 0 1 1.45-1.18 1.22 1.22 0 0 1 1.15.81l1.07-.4a1.34 1.34 0 0 1-.05-.37 1.26 1.26 0 0 1 .45-.95 1.58 1.58 0 0 1 1-.41 1.26 1.26 0 0 1 .81.28 1.24 1.24 0 0 1 .55 1 2.46 2.46 0 0 1-.3 1zM104 122.81a2.79 2.79 0 0 0-.83 4.35l.83 2.45v4.29c-.64 1-1.26 2.07-1.85 3.1v-10.88a2.84 2.84 0 0 0 .14-.86 2.74 2.74 0 0 0-.14-.85v-8.1a12.24 12.24 0 0 0 1.85 4.15zm-1.85-23.44V94.6l1.95 3a19.06 19.06 0 0 0-1.99 1.77zm1.85-.21v7.61a12.6 12.6 0 0 0-1.85 4.24v-9.93a18.87 18.87 0 0 1 1.85-1.92zm-2.37-21.55a3.25 3.25 0 0 0-2.7-1.44 3.4 3.4 0 0 0-2.17.79v-.64l4.77-7.32 5.26 8v.08a3.73 3.73 0 0 0-2.41-.9 3.46 3.46 0 0 0-2.8 1.43zm-4.87 1.73a2.15 2.15 0 0 1 2.17-2 2 2 0 0 1 2.08 2V86.44l-4.25 6.47V79.35zm4.24 9.2v4L96.71 99v-4zm0 6.06v6.09a24.07 24.07 0 0 0-4.25 8.46v-8.08zm-4.23 23a29.14 29.14 0 0 1 1.48-9.39v14.59a2.79 2.79 0 0 0-1.5 2v-7.21zm1.48 10.24v16.76a9.1 9.1 0 0 0-.63 1.93 3.73 3.73 0 0 0-.14 1 6.77 6.77 0 0 0 1.49 3.87h-2.26v-25.56a2.79 2.79 0 0 0 1.5 1.97zm3.59 26.16a6.19 6.19 0 0 0 1.59.65l-.21.17a10.08 10.08 0 0 0-3.15 5.19 73.83 73.83 0 0 1-3.35 9.74V154zm-6.52 31.51a4.29 4.29 0 0 1 .48-.84.54.54 0 0 1 .47-.22 1.22 1.22 0 0 1 .78.19 5.08 5.08 0 0 1 1.16 1.24 5.34 5.34 0 0 0 1.24 1.18h-5.28a4.34 4.34 0 0 0 1.15-1.51zm37.62-111.39l-4.25-6.47v-2h1v-1.1h-1v-1h-1.15v1h-1v1.15h1v2.18L122.86 75V61.61h10.08zM123.56 78a2.56 2.56 0 0 1 1.7-.66 2.25 2.25 0 0 1 2.28 2.22v6.91l-4.69 7.11V79.43a2.12 2.12 0 0 1 .71-1.43zm4 10.54v4l-2.81 4.38a18 18 0 0 0-1.88-1.15v-.1zm-3.11 9.55v7a13.31 13.31 0 0 0-2-1.7v-6.56a16.84 16.84 0 0 1 1.98 1.26zM107 103.62a13 13 0 0 0-1.85 1.69v-7.1A17 17 0 0 1 107 97zm-2-6.74l-2.87-4.37v-4l4.74 7.19a18.19 18.19 0 0 0-1.87 1.18zm-2.87-10.43v-6.91a2.26 2.26 0 0 1 2.28-2.22 2.59 2.59 0 0 1 1.71.66 2.16 2.16 0 0 1 .69 1.3v14.29zm0-18.68V65.7h1v-1.15h-1v-1H101v1h-1v1.15h1v2.07l-4.25 6.47V61.61h10.05v13.3zm-3.07-13.52h-2.35V43.71L96 42.44v-4.16h1v-1.15h-1v-1h-1.18v1h-1v1.15h1v4.2l-.73 1.22v10.92l-6.73 10.16V37.26a81.89 81.89 0 0 1 11.69-3.18zm-5 2.45v21.9l-2.8-4.25V71h1v-1.15h-1v-1h-1.12v1h-1V71h1v3.35l-2.78 4.24V66.86zm-3.34 18.87l3.37 5.12v2.82a2.69 2.69 0 0 0-1.44-.43 2.54 2.54 0 0 0-1.93.89 2.54 2.54 0 0 0-1.94-.89 2.6 2.6 0 0 0-1.41.42v-2.81zm-1.94 8.67a1.35 1.35 0 0 1 1.37 1.3V108l-2.78 4.24v-26.7a1.42 1.42 0 0 1 1.41-1.3zm1.94 25l3.37 5.12v9.78a2.56 2.56 0 0 0-1.35-.39 2.69 2.69 0 0 0-2 .92 2.63 2.63 0 0 0-2-.92 2.59 2.59 0 0 0-1.38.4v-9.8zm-2 15.66a1.4 1.4 0 0 1 1.4 1.3v25.25h-2.76v-25.31a1.38 1.38 0 0 1 1.38-1.28zm1.42 29.1v25.38l-.09.09v-2.66l-2.69-4.78V154zm-1.84 23.3v10.29l-1.37 1.2v-13.92zm53.07 10.29V177.3l1.37-2.44v13.92zm.93-122.93l-6.72-10.17V43.7l-.72-1.24v-4.18h1v-1.15h-1v-1h-1.16v1h-1v1.15h1v4.18l-.7 1.24v10.55h-2.33V34.07a82.15 82.15 0 0 1 11.69 3.16zm-9.35-9.26v5.06h-10.09V55.4zm-10.08-1.15V46a1.23 1.23 0 0 1 1.06-1.3 1 1 0 0 1 .73.36 1.39 1.39 0 0 1 .34.94v8.23zm3.29 0V46a1.3 1.3 0 0 1 1.3-1.29 1.45 1.45 0 0 1 1 .4 1.26 1.26 0 0 1 .42.91v8.21zm2.7-12.41V44a2.62 2.62 0 0 0-1.4-.43 2.43 2.43 0 0 0-1.85.87 2.17 2.17 0 0 0-1.68-.87 2.12 2.12 0 0 0-1.37.55v-2.7l3-4.61zm-6.29-11.22a1.22 1.22 0 1 1 2.44.08v4.89l-2.45 3.73V30.7a.58.58 0 0 0 0-.08zM119 12.88q3 .12 6 .41v11l-3-7.72-3 7.81zm0 15.38v-.73l3-7.81 3 7.72v1.19a2.29 2.29 0 0 0-1.22-.36 2.33 2.33 0 0 0-1.8.86 2.33 2.33 0 0 0-1.8-.86 2.3 2.3 0 0 0-1.23.36zm0 2.45a1.23 1.23 0 1 1 2.45-.08v8.7L119 35.59zm2.44 10.71v2.74a2.22 2.22 0 0 0-1.45-.58 2 2 0 0 0-1.6.82 2.24 2.24 0 0 0-2.92-.47V41.3l2.94-4.49zm-6-2.21v-11a1.19 1.19 0 1 1 2.37-.08v7.41zm-3.6-26.37H117.78V21l-3-7.7-3 7.61zm0 11.23l3-7.61 3 7.7v2a2.26 2.26 0 0 0-1.18-.34 2.29 2.29 0 0 0-1.77.85 2.3 2.3 0 0 0-3-.49zm0 4.06a1.23 1.23 0 1 1 2.45.12v11.07l-2.45-3.73zm2.45 13.29v2.52a2.3 2.3 0 0 0-1.22-.36 2.33 2.33 0 0 0-1.79.85 2.17 2.17 0 0 0-1.66-.85 2.08 2.08 0 0 0-1.37.55v-2.71l3-4.61zm-6-2.09v-8.65a1.23 1.23 0 1 1 2.45 0v4.89zm-3.59-26c2-.2 4-.33 6-.42v11.33l-3-7.71-3 7.82zm0 14.22l3-7.82 3 7.71v1.21a2.29 2.29 0 0 0-1.23-.36 2.34 2.34 0 0 0-1.8.85 2.32 2.32 0 0 0-1.8-.85 2.28 2.28 0 0 0-1.22.36zm0 3.19a1.22 1.22 0 1 1 2.44 0v8.62l-2.44-3.73zm2.44 10.71v2.75a2.22 2.22 0 0 0-1.45-.59 2.05 2.05 0 0 0-1.61.84 2.42 2.42 0 0 0-1.83-.84 2.61 2.61 0 0 0-1.4.42v-2.2l3.27-5zm-6.28-1.69v-6c.89-.15 1.79-.3 2.69-.42v2.25zm-53.58 95h-2.89a2.79 2.79 0 0 0 0-5h2.87zm-5.3-5a2.79 2.79 0 0 0 0 5h-2.69v-5zM39.29 128v-5.35a1.28 1.28 0 0 1 .49-1 1.9 1.9 0 0 1 1.23-.44 1.52 1.52 0 0 1 1.61 1.41V128zm1.64 4.27a2.21 2.21 0 1 1 2.21 2.21 2.22 2.22 0 0 1-2.21-2.21zm6.3-4.27h-3.45v-5.35a1.55 1.55 0 0 1 1.66-1.41 2 2 0 0 1 1.27.45 1.26 1.26 0 0 1 .51 1zm0-7.36a3.22 3.22 0 0 0-1.79-.55 2.91 2.91 0 0 0-2.23 1 2.84 2.84 0 0 0-2.19-1 3.09 3.09 0 0 0-1.74.53v-2.79l3.92-6 4 6.11zm0-4.74l-3.45-5.28v-2.2h1v-1.15h-1v-1h-1.15v1h-1v1.15h1v2.2l-3.34 5.12v-8.19l7.94-11.36zm0-21.71l-7.94 11.36V91.88l-.87-1.41-.89 1.41v44.65h9.69v25.79a82.52 82.52 0 0 1 0-94.5zm0-32.29v3.92a83.66 83.66 0 0 0 0 98.46v27.39q-2.39-2.11-4.66-4.36A102.24 102.24 0 0 1 103.5 13.42v18.75c-.9.12-1.8.27-2.69.42v-13.7l-.88-1.11-.86 1.11v14A83.15 83.15 0 0 0 87.36 36v-3l-1.28-2.19L84.75 33v4q-3.88 1.5-7.56 3.36V37.3l-1.75 2.85v1.14a83.73 83.73 0 0 0-16.15 11.25v-3.05l-1.75 2.71v1.95a83.71 83.71 0 0 0-7.68 8.26v-.51l-1.29-2.2zm26.39 132v-1.17h1.15v-1.15h1.17v1.15h1.14v1.17h-1.14v1.1h-1.17v-1.14zm-23.77-3.24v-1.75h32.8l2 1.75zm18.21 3.24v-1.17h1.15v-1.15h1.17v1.15h1.14v1.17h-1.13v1.1h-1.17v-1.14zm-5.55 0v-1.17h1.15v-1.15h1.16v1.15H66v1.17h-1.17v1.1h-1.16v-1.14zm-5.55 0v-1.17h1.15v-1.15h1.17v1.15h1.14v1.17h-1.14v1.1h-1.17v-1.14zM62 69.95l2.11 3.22v11.41h-1.54V75.1l.54-.86L62 72.46l-1.11 1.78.54.86v9.49h-2.14V74zm-2.69 2V54.09c.7-.64 1.41-1.27 2.13-1.88v16.53zm16.13 2v10.63h-2.15V75.1l.54-.86-1.11-1.78-1.12 1.78.54.86v9.48h-1.53V73.17l2.12-3.22zm-2.12-5.2v-25c.7-.41 1.41-.81 2.12-1.2v29.3zm-2 50.38v2.23a23.41 23.41 0 0 0-3-.31V121l3.59-5.47 3.51 5.47v1.59a17.79 17.79 0 0 0-3-1v-2.46zm-3-.24v-15.38a1.74 1.74 0 0 1 1.36-.61 1.56 1.56 0 0 1 1.66 1.41v10zm4.16-4.6v-10a1.42 1.42 0 0 1 1.44-1.41 1.66 1.66 0 0 1 1.1.43 1.32 1.32 0 0 1 .46 1v14.57zm1.45-12.52a2.61 2.61 0 0 0-2 1 2.92 2.92 0 0 0-2.21-1 3 3 0 0 0-1.36.33v-.69l3.48-9.62L75.42 102v.23a2.82 2.82 0 0 0-1.58-.48zM71.71 88.4L68.23 98V85.73h7.18v12.92zm.43-31L70 54.15l-2.1 3.21V47.2q2.06-1.43 4.21-2.73zM70 56.24l2.11 3.21v9.29l-1.54 2.34v-8h1v-1.17h-1v-2.22h-1.11v2.22h-1v1.15h1v8l-1.53-2.33v-9.28zm-.57 16.92v11.42h-1.5V75.1l.54-.86-1.11-1.78-1.11 1.78.54.86v9.48h-1.54V73.17L67.36 70zm-2.65-15.8l-2.11-3.21-2.11 3.21v-6.11q2.05-1.68 4.22-3.24zm-2.11-1.12l2.11 3.21v9.29l-1.53 2.33v-8h1.11v-1.16h-1.11v-2.22H64.1v2.22h-1v1.15h1v8l-1.53-2.34v-9.27zm1.81 29.49v12.63l-3.59-9.92-3.6 10V85.73zm-3.59 6.1l3.59 9.91v.34a3 3 0 0 0-1.36-.33 2.93 2.93 0 0 0-2.23 1 2.76 2.76 0 0 0-2.12-1 2.68 2.68 0 0 0-1.49.46v-.43zm3.59 11.69v15.36l-3-4.6v-10a1.55 1.55 0 0 1 1.66-1.41 1.75 1.75 0 0 1 1.34.64zm-5.7-.61a1.53 1.53 0 0 1 1.54 1.41v10l-3 4.6v-14.7a1.49 1.49 0 0 1 1.46-1.32zm2.11 12.59l3.59 5.5a22.1 22.1 0 0 0-3 .3v-2.25h-1.17v2.48a17.58 17.58 0 0 0-3 1V121zm4.42 6.67c8 0 12.27 3.66 14.66 7.47a19.56 19.56 0 0 1 2.38 5.78 3.75 3.75 0 0 0-1.73-.5h-.15a3.77 3.77 0 0 0-2.31.9 16.46 16.46 0 0 0-3.84-7.89c-2.25-2.6-5.21-4.5-8.31-4.72H67.35a6.8 6.8 0 0 0-1.33.12 13.61 13.61 0 0 0-7.7 4.62 16.33 16.33 0 0 0-3.94 7.83 3.67 3.67 0 0 0-2.42-.84 3.72 3.72 0 0 0-1.64.35 19.59 19.59 0 0 1 2.37-5.63c2.39-3.83 6.67-7.48 14.62-7.5zm15.89 24.37v-10.37a2.45 2.45 0 0 1 .9.46 1.68 1.68 0 0 1 .63 1.12v34.33l-1.52 2.75v-19.27V146.54zm-3-23.49v2.61a15.92 15.92 0 0 0-2.87-2.14l3.44-5.32 4 6v8.47a20.15 20.15 0 0 0-1.82-3.67 17.16 17.16 0 0 0-1.61-2.19V123zm1.13-6.05v-12.69A1.56 1.56 0 0 1 83 102.9a2 2 0 0 1 1.25.44 1.28 1.28 0 0 1 .49 1v17.84zm3.39-14.7a3.12 3.12 0 0 0-1.73-.52 2.92 2.92 0 0 0-2.22 1 2.7 2.7 0 0 0-2.09-1 2.74 2.74 0 0 0-1.44.41L81 91.87zm-3.24-12.37V39.59c1.07-.47 2.16-.92 3.25-1.35v60.68zm-1.15.32L77.17 99V41.66c1-.54 2.1-1.06 3.16-1.55zm-1.65 12.65a1.49 1.49 0 0 1 1.51 1.41V117l-3 4.66v-17.38a1.51 1.51 0 0 1 1.49-1.38zm-7.52 79.82V184l-.14.23v-5.83c.07-1 .12-2.2.17-3.36l.17.17.17.21a1 1 0 0 1 .23.6 17.55 17.55 0 0 0-.57 3.37c-.07.98-.03 2.3-.03 3.33zm-4-.4l-.5-.14-.37-.11L66 179l3.66.62c0 .17 0 .32-.06.43v.2l-2.67-.47zM63 181.11a35.87 35.87 0 0 1-3.88-1.3 3.62 3.62 0 0 0-1.3-.38c0-.17-.09-.33-.12-.48 1.9.46 6 1.49 7.33 1.81l.08.94c-.46-.12-1.24-.33-2.11-.59zm.58 1.36v4.64h-2v-5.21zm-3.12-.95v5.58h-2v-6.33l.16.07c.5.23 1.14.46 1.83.69zm-4-6a4.38 4.38 0 0 0-1.07-.28V137.9a1.59 1.59 0 0 1 .69-1.25 2.91 2.91 0 0 1 1.28-.53v39.8zm.91 7V185l-.37-1.11zM55.9 184l.63 2.37a3.93 3.93 0 0 1-1.63-1 2.88 2.88 0 0 1-.73-2.12v-.11a15.11 15.11 0 0 1 .39-2.49c.18-.83.36-1.49.36-1.49a.55.55 0 0 0 0-.35s-.09-.25-.18-.61a4.84 4.84 0 0 1-.18-1.13.77.77 0 0 1 0-.33c.24-.36.25-.36.51-.38a2.79 2.79 0 0 1 .9.23l.65.26a3.93 3.93 0 0 0-.2 1.27 6 6 0 0 0 .33 1.85 1.77 1.77 0 0 0-.15.39c-.16.6-.75 3.39-.75 3.4a.55.55 0 0 0 .05.24zm-2.14-5a22.27 22.27 0 0 0-.74 4.09v.14a4 4 0 0 0 1.07 2.93 5.39 5.39 0 0 0 1.17.9h-2.57v-51a1.79 1.79 0 0 1 1.52 1.74v37.62a1.89 1.89 0 0 0-.6.67 1.76 1.76 0 0 0-.21.92 7.09 7.09 0 0 0 .37 2.04zm1.82-43.48a15.45 15.45 0 0 1 3.6-6.89 15.12 15.12 0 0 1 3-2.62 9 9 0 0 0-.91 2.16 29 29 0 0 0-.82 7.51 4.26 4.26 0 0 0-2.54-.83 4.34 4.34 0 0 0-2.32.72zm25.81 12.11l-1 .81-1.05-.81zm-1.07-1.15v-8.58a1.66 1.66 0 0 1 .66-1.26 2.56 2.56 0 0 1 1.07-.51v10.41zm-.46 2.33l-1.8 1.39-1.77-1.36 1.53-1.21h.51zm-2.66 21.83v-8.86c.37 0 .75-.1 1.09-.15a3.43 3.43 0 0 0 .89-.24v23.44c-.66-.13-1.33-.27-1.88-.43h-.09v-6.6a18.84 18.84 0 0 0 1.07-4.19 4.42 4.42 0 0 0-1.08-2.97zm1.47-10.29a10.76 10.76 0 0 1-1.85.3l-1 .09-.64-1.66c0-.12.09-.41.57-.71a11.38 11.38 0 0 1 2.36-1 1 1 0 0 1 .27 0 .65.65 0 0 1 .38.1l-.12.07c-.39.2-.76.33-1.09.46a2.15 2.15 0 0 0-.47.24.81.81 0 0 0-.38.67.78.78 0 0 0 0 .2.73.73 0 0 0 .36.45.87.87 0 0 0 .43.1 4.84 4.84 0 0 0 1.64-.53 10.51 10.51 0 0 1 2.3-.85v.06a.68.68 0 0 1-.23.4 10.34 10.34 0 0 1-1.34.88c-.52.38-1.07.67-1.19.73zm-6.4 19.08a8 8 0 0 1 .44-2.52l1 .25-1.24 6.61h-.22v-1c.06-1.1.02-2.44.02-3.34zM63 150.5l.46-.22c.18-.08.39-.17.59-.24a6.54 6.54 0 0 0 .38.72 3.21 3.21 0 0 0 1.92 1.59 5.74 5.74 0 0 0 1.17.12 9.15 9.15 0 0 0 1.74-.19c.17.19.43.49.72.87a6.82 6.82 0 0 1 .93 3.63l-2.08.88-.08-.08c-.82-.82-1.74-2-3.7-4.4l-.89.73 1.61 2-3.52 2.59c-.16-.4-.28-.69-.33-.81a9.71 9.71 0 0 1-.41-1.33 10.13 10.13 0 0 1-.33-2.31 2.6 2.6 0 0 1 .27-1.32c.81-1.19 1.4-1.97 1.55-2.23zm-1.45 0v-2.39a2.47 2.47 0 0 0 .41.28 3.7 3.7 0 0 0 1.75.42h.12v.08a9.33 9.33 0 0 0-1.49.64.65.65 0 0 0-.18.15s-.16.32-.56.85zm5.29-.64a6.86 6.86 0 0 0 1.56.15h.68l-.08 1.17h-.16a7.62 7.62 0 0 1-1.26.12 4.59 4.59 0 0 1-.93-.09 2.15 2.15 0 0 1-1.18-1.07 5.64 5.64 0 0 1-.36-.7c0-.09-.07-.16-.08-.21v-.08a7.56 7.56 0 0 0 1.86.74zm-1.07-1.59a2.87 2.87 0 0 0 .75-.61l.25.68.13.35a6.87 6.87 0 0 1-1.09-.38zm10.24-1.77h-2v-8.6a1.6 1.6 0 0 1 .69-1.25 2.9 2.9 0 0 1 1.28-.53zm.83 1.15l-1.06.84-1.09-.84zm-1.54 1.21l-1.27 1v-2zm.48.37l1.76 1.35-1.79 1.42-1.67-1.28v-.11zm-.55 3.13l-1.2.92v-1.84zm.48.37l1.8 1.39-1.92 1.47-1.55-1.2v-.37zm-1 4.93a3.67 3.67 0 0 1-.27-.46l1.14-.88.64.49a9 9 0 0 0-1.12.56 2.47 2.47 0 0 0-.32.33zm1.27 4.25v7.4l-2-2.24v-4.37zm-.89-6l-.89.69a4.1 4.1 0 0 1-.19-1.25v-.27zm-1 3.65L70.01 161l.36-1.06 3.52-.92zM72.36 148a1.52 1.52 0 0 1-.13-.37 2.85 2.85 0 0 1 0-.54 2.57 2.57 0 0 1 0-.43 1 1 0 0 1 0-.14 5.74 5.74 0 0 1 .48-.58l.12-.12v12.3l-.56.15-.15-1.27v-.14a8 8 0 0 0-1.12-4.38v-2.55h.09a2.58 2.58 0 0 0 .76-.09 1.07 1.07 0 0 0 .75-.78 1.43 1.43 0 0 0 0-.34 1.46 1.46 0 0 0-.16-.63zm-1.17 10.54l-1.11.29-.38-.38 1.36-.57zm1.67-14.41l-.2-.44c-.06-.12-.1-.24-.13-.32v-.07a4.5 4.5 0 0 0 .18-.89 1.28 1.28 0 0 0-.25-.75c-.17-.25-.41-.55-.6-.78a2.58 2.58 0 0 0 .42-1.42 2.07 2.07 0 0 0-.84-1.77 3.81 3.81 0 0 0-.53-.29v-1.37a2.9 2.9 0 0 1 1.28.53 1.6 1.6 0 0 1 .69 1.25zm-1.36-1.81v.09s-.09.31-.17.75a.57.57 0 0 0 0 .1 1.09 1.09 0 0 0-.82 1 3.15 3.15 0 0 1 1.07-.14l.37.81v.06l-.12.12-.07.08-.91.44a1.41 1.41 0 0 1 .16.62c0 .32-.12.68-.75 1.17l.7.91.19-.16c0 .11.08.2.11.26s.06.14.06.16a1.54 1.54 0 0 1-.4 0h-.46c-.2 0-.43 0-1.7.1h-.35a3.51 3.51 0 0 1-.37-.3 12.33 12.33 0 0 1-.47-1.21 6.31 6.31 0 0 0 1.44-1c1.4-1.3 1.71-3.45 2-4.54.26.36.44.58.56.76zM63.71 162a17.85 17.85 0 0 0 2.55 1.73h-1.92v-.09l-.67-1.64zm-.87-2.51l3.72-2.75.5.59-3.22 3.17zm2.81 2.51c-.42-.27-.79-.52-1-.69l3.18-3.12.17.17.33.33zm3.5-2.5l.19.18-1.28 3.79-1.21-.72-.22-.13zm-7.55.27l.56 1.47 1.06 2.76a4.44 4.44 0 0 1 0 .57 1.82 1.82 0 0 1-.12.76 11.69 11.69 0 0 0-1.1 5.6 2.39 2.39 0 0 0 .59 1.79 1.47 1.47 0 0 0 .63.36c0 .18.07.43.14.79a22.21 22.21 0 0 0 1 3.06 6.59 6.59 0 0 0-1.86-.57 5.44 5.44 0 0 0-.72 0h-.18zm1.59 9.67c.86-.17 2.85-.56 4.08-.88 1-.27 2.34-.67 3.12-.92 0 .22.06.45.08.67-.8.24-2.54.76-3.58 1s-2.82.59-3.74.76c.01-.17.02-.38.04-.59zm3.79-2c-1 .27-2.65.6-3.62.79a8 8 0 0 1 .78-2.35 2.43 2.43 0 0 0 .25-1h3.83l.19.11.54.34a4 4 0 0 1 1.08 1 1 1 0 0 1 .1.2c-.75.26-2.13.69-3.13.95zm2.31-4l.33-1 5-1.74.19.5zm3.32-.11l.33-.13v2.46a1.94 1.94 0 0 1-.33-.69zm.8 4.74l2.47 2.8-.79.63-2.44-2.89zm.78 4.15l-.61.48-2.18-2a1 1 0 0 0 .1-.19 4.13 4.13 0 0 0 .15-1.17h.07zm-1.52 1.21l-.86.68c-.18-.17-.38-.36-.62-.55v-1.46zm2.21 4l1.15.27c-.16.49-.33 1-.51 1.47-.64 1.83-1.28 3.51-1.53 4.16l-.24.12zm1.18 3.64v2.84a3.35 3.35 0 0 0-.84-.59c.2-.55.5-1.32.83-2.26zm-3.23-5.3a2.15 2.15 0 0 0-.29-.76l4.07-3.23a3.39 3.39 0 0 1 .32.65l-3.48 2.7 3.15.8-.21.68zm3.17-1.19l1.11-.86a7.41 7.41 0 0 1-.22 1.09zm4-17a.46.46 0 0 0 0-.06 1.26 1.26 0 0 0-.3-.74l.63-.48 1.15.88a5.17 5.17 0 0 0-1.48.38zm-.78-1.16a2 2 0 0 0-.79-.17 2.08 2.08 0 0 0-.59.09c-.27.08-.58.18-.9.3l-.79-.61 1.85-1.51 1.8 1.38zM78 153.79l-1.8-1.39 1.86-1.4 1.8 1.38zm1.15-7.25h-2v-10.43a2.91 2.91 0 0 1 1.28.54 1.59 1.59 0 0 1 .69 1.25zm-2.54-11.63a4.21 4.21 0 0 0-2.55.83 29.5 29.5 0 0 0-.79-7.61 8.68 8.68 0 0 0-.92-2.18 14.66 14.66 0 0 1 3.1 2.73 15.58 15.58 0 0 1 3.5 6.9 4.31 4.31 0 0 0-2.31-.67zm-3.71.81a4.23 4.23 0 0 0-2.53-.81 4.62 4.62 0 0 0-2.51.66v-11.23c2.45.19 3.6 1.7 4.34 4.1a28.39 28.39 0 0 1 .73 7.28zm-3.11.37v1.12a4 4 0 0 0-1.06.16 4.79 4.79 0 0 0-.8-.24 1.45 1.45 0 0 1 .54-.6 3.15 3.15 0 0 1 1.35-.43zm-1.33 2.41l.2.09.21-.06a3.17 3.17 0 0 1 .93-.17 1.81 1.81 0 0 1 1.06.38.78.78 0 0 1 .29.51 7.3 7.3 0 0 0-1.72-.17h-.52v1.15h.47a5.78 5.78 0 0 1 1.49.16 1.24 1.24 0 0 1-.52.42l-.14.06a2.81 2.81 0 0 0-.77-.09h-.59v1.15h.59a1.8 1.8 0 0 1 .38 0c-.29 1.18-.68 2.75-1.56 3.53s-1.54 1-1.81 1h-.52l-.18.34a1.73 1.73 0 0 1-.9.68 2.79 2.79 0 0 1 .38-1.35l-1-.54a4 4 0 0 0-.52 1.89v.27a3.18 3.18 0 0 1-.44 0v-.33a3.58 3.58 0 0 1 .54-2l-.94-.66a4.52 4.52 0 0 0-.74 2.42 1.76 1.76 0 0 1-.35-1.12 2.67 2.67 0 0 1 .61-1.71l.16-.17v-.23-.18a5.83 5.83 0 0 1 1.15-4 4.69 4.69 0 0 1 3.3-1.58 3.62 3.62 0 0 1 1.48.32zm-6.88 3.1v-3.72a1.6 1.6 0 0 1 .69-1.24 2.93 2.93 0 0 1 1.28-.54v2.14a6.16 6.16 0 0 0-.69.62 5.39 5.39 0 0 0-1.26 2.74zm3.12-4v-1.5a3.14 3.14 0 0 1 1.31.44 1.52 1.52 0 0 1 .51.53 5.53 5.53 0 0 0-1.8.5zm2-2a4.62 4.62 0 0 0-2.51-.66 4.23 4.23 0 0 0-2.53.81 27.86 27.86 0 0 1 .77-7.18c.74-2.38 1.9-3.92 4.31-4.18zm-6.24 21v19.8a8.07 8.07 0 0 1-1.12.11 2 2 0 0 1-.69-.1l-.16-.06v-40.24a2.89 2.89 0 0 1 1.28.53 1.59 1.59 0 0 1 .69 1.25v14.39a3.86 3.86 0 0 0-.36 1.75 11.3 11.3 0 0 0 .35 2.6zm-2.73 20.69l.53.19a3.22 3.22 0 0 0 1.07.17c.84 0 1.6-.21 2.39-.21a4.42 4.42 0 0 1 .57 0 5.51 5.51 0 0 1 2 .71 5.06 5.06 0 0 1 .57.37l.08 1c-1.7-.42-5.71-1.42-7.29-1.8a2.74 2.74 0 0 1 .08-.4zm8.73.63l-.58-.1c-.13-.32-.34-.88-.58-1.52a19.72 19.72 0 0 1-.83-2.66l-.12-.67.92-.2zm-.06-5.41l1-.24.29-.07.56 6-.53-.09zm-1.68 10.25l.51.14.3.11c.28.1.69.23 1.15.36v3.72h-2zm4.66-1.37a3.58 3.58 0 0 1-.11.43 1.15 1.15 0 0 1-.5.64.9.9 0 0 1-.31 0h-.12l-.12-1.3zm-1.54 2.2a4.59 4.59 0 0 0 .62 0 1.63 1.63 0 0 0 1-.26 2.55 2.55 0 0 0 .37-.32v4h-2zm2-5.11l-.42-.07-.6-6.54c.4-.12.78-.24 1.11-.35l.19-.07c0 .78 0 2-.09 3.24s-.15 2.75-.22 3.83zm-.69-7.91c-2 .66-5.33 1.35-5.51 1.38a.33.33 0 0 1-.23-.09 1 1 0 0 1-.22-.61c.82-.15 2.86-.55 4-.82 1-.24 2.45-.67 3.34-.94a3.7 3.7 0 0 1-.06.53 6.21 6.21 0 0 1-1.35.59zm.89-6.21l1.45-.59v.59zm1.57 1.15a5.28 5.28 0 0 0 .74 1.23l.34.43-1.08.77a6.12 6.12 0 0 0-.54-2.2 2.38 2.38 0 0 0-.17-.23zm.33 19.34a2.84 2.84 0 0 0 .49 0 4.44 4.44 0 0 0 2-.55.66.66 0 0 0 .22-.05h.11a2.34 2.34 0 0 1 .52.39 4.35 4.35 0 0 0 1.69.75 39.73 39.73 0 0 0 4.73.9c-.06.19-.05.18-.16.24a2.62 2.62 0 0 1-1 .15c-.38 0-.8 0-1.23-.05a30.35 30.35 0 0 1-3.57-.3 1.86 1.86 0 0 0-.43 0 37.84 37.84 0 0 0-3.79.41c-.07 0-.17 0-.21-.4a.49.49 0 0 1 0-.08 3.32 3.32 0 0 1 .6-1.38zm8.41.14v-24.24l.19-.12a9.9 9.9 0 0 0 1.55-1v25.69c-.42-.08-1.09-.17-1.77-.32zm1.51-28.3l-1.05-.81 1.3-1v.52a3.43 3.43 0 0 1-.28 1.32zm-1.53-1.18l-1.8-1.38 1.84-1.42 1.74 1.34v.1zm.52-3.17l1.26-1v1.93zm-.48-.37l-1.8-1.39 1.8-1.39 1.73 1.33v.1zm.48-3.14l1.25-1v1.93zm-23.31-27.27l-3-4.59v-12.66A1.43 1.43 0 0 1 56 102.9a1.67 1.67 0 0 1 1.1.43 1.33 1.33 0 0 1 .46 1zm0-22.6l-3.16-8.74V59q1.54-1.65 3.16-3.22zm0 3.24a2.86 2.86 0 0 0-1.52-.45 2.63 2.63 0 0 0-2.05 1 3 3 0 0 0-2.24-1 3.34 3.34 0 0 0-1.71.48l3.77-10.42zm-4.31-12.37l-3.37 9.32v-34.9q1.62-2.07 3.37-4zm-2.86 13.52a2.1 2.1 0 0 1 1.3-.45 1.58 1.58 0 0 1 1.7 1.41V117l-3.51 5.42v-18.11a1.26 1.26 0 0 1 .51-.96zM54 118.19l3.46 5.27a15.86 15.86 0 0 0-2.89 2.13v-2.72h-1.2v3.89A17.41 17.41 0 0 0 51.7 129a20.54 20.54 0 0 0-1.84 3.78v-8.28zm-2.41 17.9v51h-1.73v-49.3a1.71 1.71 0 0 1 1.69-1.69zm32.31 51.5V177.3l1.31-2.38v13.85zm31 29.66a101.8 101.8 0 0 1-65.79-24h4.43l3.2 2.75h20.81l3-2.69h4.64a83.86 83.86 0 0 0 59.43 0h4.61l2.93 2.69h20.52l3.22-2.69h4.79a101.79 101.79 0 0 1-65.82 23.95zm42.03-147.3l2.07 3.22v11.41h-1.53V75.1l.54-.86-1.11-1.78-1.11 1.78.54.85v9.49h-2V73.83zm-2.61 1.83V42.59c.69.38 1.37.76 2 1.15v25zm16.12 2.3v10.5h-2.2V75.1l.54-.86-1.11-1.78-1.11 1.78.54.86v9.48h-1.53V73.17l2.11-3.17zm-2.2-5.34V52.15c.75.63 1.47 1.28 2.2 1.94V72zm-2 50.35v2.25a22.7 22.7 0 0 0-3.06-.29V121l3.59-5.47 3.67 5.59v1.47a17.76 17.76 0 0 0-3.05-1v-2.48zm-3.06-.21v-15.37a1.73 1.73 0 0 1 1.35-.61 1.55 1.55 0 0 1 1.66 1.4v10zm4.17-4.59v-10a1.43 1.43 0 0 1 1.45-1.4 1.84 1.84 0 0 1 1.16.44 1.35 1.35 0 0 1 .47.78V119zm1.45-12.53a2.62 2.62 0 0 0-2 1 2.92 2.92 0 0 0-2.21-1 3 3 0 0 0-1.35.33v-.23l3.61-10 3.64 10.07v.37a3 3 0 0 0-1.69-.55zm-2-13.3l-3.61 10V85.73h7.25v12.8zm.3-31.1l-2.1-3.21-2.11 3.21V48q2.16 1.55 4.22 3.23zm-2.1-1.12l2.11 3.21v9.29l-1.53 2.33v-8h1v-1.16h-1v-2.22h-1.15v2.21h-1v1.15h1v8l-1.54-2.33v-9.27zm-.57 16.93v11.41h-1.54V75.1l.54-.86-1.11-1.78-1.11 1.78.54.86v9.48h-1.55V73.17l2.11-3.17zm-2.68-15.81l-2.11-3.21-2.11 3.21V44.42q2.15 1.3 4.22 2.73zm-2.11-1.12l2.11 3.21v9.29l-1.54 2.34v-8h1.1v-1.17h-1.1v-2.22H159v2.21h-1v1.15h1v8l-1.53-2.33v-9.27zm1.81 29.49v12.55l-3.52-9.73-3.59 9.93V85.73zm-3.52 6.19l3.52 9.73v.43a3 3 0 0 0-1.35-.33 2.92 2.92 0 0 0-2.21 1 2.62 2.62 0 0 0-2-1 2.68 2.68 0 0 0-1.49.47v-.36zm3.52 11.59v15.36l-3-4.59v-10a1.55 1.55 0 0 1 1.66-1.4 1.75 1.75 0 0 1 1.32.63zm-7.11.8a1.48 1.48 0 0 1 1.49-1.41 1.43 1.43 0 0 1 1.45 1.41v10l-2.94 4.49v-14.49zm3.52 11.18l3.59 5.47v.04a22.77 22.77 0 0 0-3 .29v-2.23h-1.15v2.45a18.47 18.47 0 0 0-3 .95v-1.66zm4.55 6.67c7.93 0 12.2 3.68 14.6 7.52a19.78 19.78 0 0 1 2.34 5.55 3.85 3.85 0 0 0-1.6-.32 3.67 3.67 0 0 0-2.42.84 16.38 16.38 0 0 0-3.94-7.83 14.17 14.17 0 0 0-6.82-4.43 7.23 7.23 0 0 0-2.21-.31h-.66c-3.11.22-6.07 2.13-8.32 4.72a16.54 16.54 0 0 0-3.83 7.85 3.55 3.55 0 0 0-2.32-.86 3.78 3.78 0 0 0-1.83.49 19.56 19.56 0 0 1 2.37-5.76c2.33-3.79 6.6-7.44 14.62-7.46zm6.55 71.7v-1.17h1.14v-1.15h1.17v1.15h1.14v1.17h-1.14V195h-1.17v-1.14zM145 190.62l2-1.75h32.8v1.75zm18.35 3.24v-1.17h1.14v-1.15h1.17v1.15h1.14v1.17h-1.1V195h-1.17v-1.14zm-5.56 0v-1.17H159v-1.15h1.17v1.15h1.14v1.17h-1.14V195H159v-1.14zm-5.55 0v-1.17h1.14v-1.15h1.17v1.15h1.14v1.17h-1.09V195h-1.17v-1.14zm3.29-53v7.75a3.37 3.37 0 0 1-1.63 3.12l-.11-.08a16.43 16.43 0 0 0-2.63-1.12 2.06 2.06 0 0 0-.72-.14 1.35 1.35 0 0 0-1.41 1.23h-.06l-.27-.13a3.46 3.46 0 0 1-1.18-2.85v-7.75zm-8-1.15v-3.61a2 2 0 0 1 1.77 1.8v1.81zm29 39.65a1.25 1.25 0 0 0-.64-.44l-.45-.17V137.9a1.82 1.82 0 0 1 1.7-1.78v51h-1.7v-3.26l.83-1.58a4.38 4.38 0 0 0 .55-1.92 1.65 1.65 0 0 0-.28-1zm-.92.69a.61.61 0 0 1 .07.32 3.29 3.29 0 0 1-.41 1.38l-2.54 4.8h-4.58a.57.57 0 0 1 .1-.21 3 3 0 0 1 1.14-.64c.53-.2 1-.32 1-.33l.25-.07 1.77-3.53c.18-.15.64-.52 1.17-.89a4.73 4.73 0 0 1 1.82-.9c.2.02.19.02.22.02zm-1.32 6v1.09h-.57zm-7.19 1.09h-1v-6.64l2 .5v4a2.39 2.39 0 0 0-.76.65 1.61 1.61 0 0 0-.3.91 1.29 1.29 0 0 0 .07.55zm-2.49-8.17l.39-1.07 7.21 2.6-.38.3zm-4.53-2.97a3 3 0 0 1 0-.3v-.33l4.38.44-1 2.83-.72-.18h-.19l.69-2.07zm.31 9.76v-.36a7.89 7.89 0 0 0-.17-1.61A7.24 7.24 0 0 1 160 182v-1.18c0-.78 0-1.48-.09-2.1l.26.17a6.64 6.64 0 0 0 1.57.58v7.66H160a2.23 2.23 0 0 0 .36-1.27zm-11.22 1.33h-1.6V154c.3.21.65.43 1 .65l.76.46V185a.57.57 0 0 0-.65.44 1.46 1.46 0 0 0 0 .33 2 2 0 0 0 .49 1.34zm0-33.46a11.09 11.09 0 0 1-1.36-.93.53.53 0 0 1-.2-.35.25.25 0 0 1 0-.11 5.2 5.2 0 0 1 .87.35c.48.23 1 .51 1.38.69a4.33 4.33 0 0 0 1.53.48.89.89 0 0 0 .44-.11.76.76 0 0 0 .36-.47.91.91 0 0 0 0-.15.8.8 0 0 0-.4-.68c-.46-.27-1-.35-1.57-.65h-.06s0-.1.26-.11a1 1 0 0 1 .33.07 16.52 16.52 0 0 1 2.42 1 1.05 1.05 0 0 1 .56.72l-.54 1.22-1.19-.1-1.16-.08h-.44c-.22-.16-.7-.42-1.22-.77zm10.75 1.2l-.26.72-4.85-1.68.14-.32zM155 152.4a4.8 4.8 0 0 0 .59-.56v.71zm.59-12.69h-2v-3.6a2.91 2.91 0 0 1 1.28.54 1.59 1.59 0 0 1 .69 1.25zm3.11 6.22v7.42l-2-.51V137.9a1.59 1.59 0 0 1 .69-1.25 2.85 2.85 0 0 1 1.27-.53v5.62a2.47 2.47 0 0 0-.58.45 2.27 2.27 0 0 0-.55 1.54 3.07 3.07 0 0 0 1.16 2.2zm1.94-4.86v.14h-.06a2.75 2.75 0 0 0-.56.06h-.14v-.67a8 8 0 0 0 .75.47zm-.79-1.62v-3.35a3.07 3.07 0 0 1 1.79.82l-.18.14a2.19 2.19 0 0 0-.59.57c-.45.66-.67 1.31-1.03 1.82zm.36 2.94a1.88 1.88 0 0 1 .34 0 1.29 1.29 0 0 1 .87.37 2.67 2.67 0 0 0 1.43.7h.22a2.51 2.51 0 0 0 1.74-.83 2.05 2.05 0 0 0 .83.48c-1.23 2.28-2.54 2.57-3.74 2.6h-.31a4.91 4.91 0 0 1 .46-.54l-.83-.79a6.91 6.91 0 0 0-.91 1.18 2.07 2.07 0 0 1-.58-.24l.14-.19a10.67 10.67 0 0 1 .89-1.07l-.81-.81a11.51 11.51 0 0 0-1 1.23 1.45 1.45 0 0 1-.21-.68 1.11 1.11 0 0 1 .26-.78 2.11 2.11 0 0 1 1.2-.63zm8.89-4.11a2.18 2.18 0 0 1 .76 1 4.24 4.24 0 0 1 .44 1.76 2.75 2.75 0 0 1-.05.5 4.85 4.85 0 0 1-.54-1.15l-1.1.33a6.41 6.41 0 0 0 .94 1.83 2.68 2.68 0 0 1-.34.17 5.78 5.78 0 0 1-1-1.8l-1.11.31a6 6 0 0 0 .72 1.57 2.45 2.45 0 0 1-.55-.25 2.54 2.54 0 0 1-.33-.24l-.1-.09-.21-.22H166.17c-.43 0-.79-.25-1-.88a.71.71 0 0 1 0-.18c0-.4.43-.95.76-1.66l.2-.49-.46-.24a13.53 13.53 0 0 1-1.6-.79 1.59 1.59 0 0 1-.85-1.35.24.24 0 0 1 0-.1 1.18 1.18 0 0 1 .39-.49 3 3 0 0 1 1.17-.55 6.79 6.79 0 0 1 1.51-.18 2.93 2.93 0 0 1 2.14.73 1.28 1.28 0 0 1 .45.94 4.87 4.87 0 0 1-.17.9l-.07.43zm1-1.77a2.78 2.78 0 0 1 1.11-.41v3.41a5.67 5.67 0 0 0-.31-.78 3.82 3.82 0 0 0-.9-1.22 3.29 3.29 0 0 0 .1-.75 1.65 1.65 0 0 0-.04-.25zm-11.2 44.29v1.18a8.29 8.29 0 0 0 .21 2.06v.26l-.38-.23-2.84-11.07 1.11-.43.88 2.35a14.93 14.93 0 0 1 1.02 5.88zm-.82-8.68l.62-.26v1.88zm-4.56 1.76l1.29-.5 2.56 9.89-.52-.3zm2.18 9.29a13.36 13.36 0 0 1-2.1 1.31v-7zm-3.4-9.28l.16.43v10.61a7 7 0 0 1-1.68.2h-.28v-29.58c.42 0 1 .08 1.59.11h.38v12.59a4.18 4.18 0 0 0-1.42 3 3.48 3.48 0 0 0 1.25 2.64zm-.14-2.49a.6.6 0 0 1 0-.09 2.39 2.39 0 0 1 .39-1.33l1 .82zm3.66-.29l-2.56-2c.17-.18.37-.37.59-.56.51.43 1.62 1.38 2.16 1.92a3.86 3.86 0 0 1 .69.95h-.1l-3.7 1.44a2.62 2.62 0 0 1-.34-.41zm1-5.1a19.27 19.27 0 0 1 3.16-2.11l.59-.31-.11.87-5.28 3.72-.49-.42zm-.13-1.36v-7.09l2 .81v5a20.72 20.72 0 0 0-1.96 1.28zM167.84 145l.39.69.07.06-4.4 1.4a1.27 1.27 0 0 0-.15-.41zm-1.69-.52a7.89 7.89 0 0 0 .56-.95 4.09 4.09 0 0 0 .4.21l.15.26zm.35 11.82l1.17-.83.23.19.36-.34s.26-.25.62-.64c-.19.54-.35 1-.48 1.4zm1.5 1c-.12.37-.19.62-.23.76l-4.18.39.07-.12.89-.62zm-4.66-.16l-.62-.85 2.84-2.49 1.18.94zm4.81 2c.1.16.22.35.34.56s.23.4.33.62l-6.72.63.16-1.25zm1.06 2.29v.1c0 .16 0 .32.05.48l-7.4.74.08-.65zm.2 1.73l.07.61-.84.08-7 .66.07-.58zm-.19 4.36c.38-1.22.59-2.09.7-2.59h.87l-.08-.62s-.2-1.57-.34-2.86a8.2 8.2 0 0 0-1.45-3.19c0-.14.1-.34.19-.62.2-.64.55-1.66 1.09-3.19a18 18 0 0 0 .81-3.19c.09-.59.15-1.13.18-1.6v27.27c-.33-.19-.71-.4-1.11-.61l-.86-.43zm1.54-20.76a13.15 13.15 0 0 0-1.61-1.8l-.55-1a3.29 3.29 0 0 0 1.61-.54 2.56 2.56 0 0 0 1-1.16v5.41a2.24 2.24 0 0 0-.46-.93zm-1.54-.09a7.89 7.89 0 0 1 .59.74 1.49 1.49 0 0 1 .23.44v.76a15.68 15.68 0 0 1-.19 2.36 7.12 7.12 0 0 1-1.34 2.35c-.26.33-.52.61-.71.81l-3.86-3.13 1.57-3.18zm-5.22 1.65l-1.49 3 .25.2-.35.35c-.07-.27-.14-.55-.19-.78a3.19 3.19 0 0 1-.06-.6 1.33 1.33 0 0 1 .3-.89c.21-.28.58-.63 1-1.14zm-.34 3.93l1 .79-2.66 2.28-.6-.82zm-1.86-3.63l-.26.31a2.51 2.51 0 0 0-.53 1.58 4.36 4.36 0 0 0 .09.82c.09.49.27 1.13.38 1.51l-1 1-.66-.17v-7.08a3.3 3.3 0 0 0 .59.14 12 12 0 0 0 1.35.12zm-.93 7l1.67 2.27a1.54 1.54 0 0 1-.84.64h-.25a1.74 1.74 0 0 1-1.16-.44 1.8 1.8 0 0 1-.24-.24zm.23 4.06l-.31 2.53c-.22.09-.54.25-.93.45v-3.42a2.85 2.85 0 0 0 1.22.48zm-4.45 9.73l-.52-.48 4.59-3.23h.11l-.22 1.24zm4.07 3l.54-2.66.74-4.2 1.36-.13-2.15 8.86-.85-.08zm3.86-7.11l1.58-.15-3 9.31-.73-.07zm2.82-.26l1.33-.13c0 .13-.07.27-.11.43-.2.79-.54 2-1.08 3.53a43.34 43.34 0 0 1-1.77 4.22c-.33.69-.61 1.24-.78 1.57l-.73-.07zm.68 5.69v4.56a8.7 8.7 0 0 0-1.61-.43h-.25c.41-.86 1.16-2.36 1.84-4.07zm-2.39 5.27l.58.09a11.23 11.23 0 0 1 3.26 1.22c1 .54 1.84 1.07 2.3 1.28s1.23.5 2 .81l-.51.31-8-2.87zm-6.42-19.31l-.22.61-4.86-2 .15-.35zm-3.7.44v8.49c-.75.62-1.4 1.15-2 1.64v-10.97zm-4.81 29.18a7 7 0 0 0 3-.6 14.29 14.29 0 0 0 2.66-1.62l2.8 1.64v.06a1.14 1.14 0 0 1-.17.63c-.17 0-.71-.12-1.57-.12h-.67c-1.92.14-2.68.5-3.91.5h-.31c-1.59-.06-2.18-.16-2.5-.51a.87.87 0 0 1-.12-.14c.21.11.49.13.8.13zm8.4-16a9.77 9.77 0 0 1-1.32.65h-.07a5.43 5.43 0 0 0-.39-.67l2.92-1.83-.18 1a3.33 3.33 0 0 1-.94.87zm1.07 6.87l1.47.16-.26.8a4.39 4.39 0 0 1-.68-.29 1.15 1.15 0 0 1-.52-.65zm4.68 3v6.9h-2v-7.4zm6.21 1.57l-1.27 2.54c-.17 0-.4.12-.66.21v-3.2zm3.16-3.49c-.78-.3-1.61-.63-2-.78v-41.4a2.9 2.9 0 0 1 1.28.53 1.59 1.59 0 0 1 .69 1.25zm-2.54-43.38a4.33 4.33 0 0 0-2.1.51 3 3 0 0 0-.34-.4l-.11-.1a22.91 22.91 0 0 0-1-7.85 6.41 6.41 0 0 0-.33-.75 15.2 15.2 0 0 1 2.61 2.35 15.4 15.4 0 0 1 3.6 6.89 4.34 4.34 0 0 0-2.31-.62zm-3.72-.69a5 5 0 0 0-1.7-.28 8 8 0 0 0-1.76.21 4 4 0 0 0-1.62.77v-10.56a8.2 8.2 0 0 1 .94.14l.23.06a4.49 4.49 0 0 1 3 2.93 20.11 20.11 0 0 1 .89 6.76zm-4.57 4.52a7.7 7.7 0 0 0 1.17.61 3.18 3.18 0 0 0-.58 1.61 1.9 1.9 0 0 0 .06.47v.14c-.23.31-.71.74-1.11.71h.01a1.64 1.64 0 0 1-.85-.46 3.56 3.56 0 0 0-.4-.28c0-.21.07-.47.11-.73a.58.58 0 0 0-.31-.58l-.6-.3c.31-.48.5-.92.72-1.3v.92s.22.21.71.24a1.79 1.79 0 0 0 .77-.11 1.27 1.27 0 0 0-.34-.51 2.73 2.73 0 0 0-1.08-.54c.06-.1.12-.23.18-.32a1.11 1.11 0 0 1 .32-.3 3.45 3.45 0 0 0 .33-.27 3.2 3.2 0 0 0 .91 1.03zm-4.19-3.83a4.26 4.26 0 0 0-2.52.81 28.35 28.35 0 0 1 .75-7.28c.73-2.39 1.88-3.89 4.3-4.09v11.26a4.87 4.87 0 0 0-2.51-.67zm-2.9-6.79a29.4 29.4 0 0 0-.79 7.62 4.23 4.23 0 0 0-2.54-.83 4.29 4.29 0 0 0-2.32.66 15.55 15.55 0 0 1 3.49-6.9 14.62 14.62 0 0 1 3.09-2.73 8.78 8.78 0 0 0-.91 2.21zm-5.2 8.53a2.89 2.89 0 0 1 1.28-.53v3.6h-2v-1.79a1.59 1.59 0 0 1 .74-1.26zm27.12 50.47v-51a1.91 1.91 0 0 1 1 .46 1.59 1.59 0 0 1 .46.89v49.65zm-.33-58a17.91 17.91 0 0 0-1.64-2.24v-4h-1.15v2.77a16.18 16.18 0 0 0-2.92-2.19l3.46-5.27 4.1 6.26v8.43a20.94 20.94 0 0 0-1.8-3.77zM176.29 117v-12.69a1.58 1.58 0 0 1 1.7-1.4 2.13 2.13 0 0 1 1.31.45 1.27 1.27 0 0 1 .51.91v18.1zm3.45-14.71a3.34 3.34 0 0 0-1.75-.51 3 3 0 0 0-2.25 1 2.61 2.61 0 0 0-2-1 2.73 2.73 0 0 0-1.47.43L176 91.83zm-3.15-12.11V60.3q1.67 1.88 3.22 3.87v34.9zm-1.15-.21l-3.24 8.95V55.73q1.66 1.6 3.24 3.3zm-1.74 13a1.43 1.43 0 0 1 1.45 1.4V117l-2.94 4.48v-17.3a1.5 1.5 0 0 1 1.48-1.28zm-24.22 1.41a1.43 1.43 0 0 1 1.45-1.41 1.83 1.83 0 0 1 1.16.44 1.3 1.3 0 0 1 .5 1v17.47l-3.09-4.8v-12.77zm3.1-5.23l-3.24-9v-50q1.64.76 3.24 1.59zm-.09 3.14a3 3 0 0 0-1.56-.47 2.6 2.6 0 0 0-2 1 2.93 2.93 0 0 0-2.21-1 3.15 3.15 0 0 0-1.67.48l3.75-10.37zm-4.3-12.16l-3.25 9V38.22c1.09.43 2.18.87 3.25 1.35zm-2.77 13.29a2 2 0 0 1 1.25-.44 1.56 1.56 0 0 1 1.66 1.4V117l-3.4 5.18v-17.91a1.28 1.28 0 0 1 .48-.93zm3.48 14.85l3.43 5.32a16 16 0 0 0-2.82 2.11V123h-1.15v3.78a16.83 16.83 0 0 0-1.63 2.21 20.4 20.4 0 0 0-1.81 3.74v-8.52zm-4 19.7a1.67 1.67 0 0 1 .64-1.27 2.37 2.37 0 0 1 .85-.45v38.6l-1.49-2.71V137.9zm.87 39.4v10.3l-1.31 1.17v-13.92zm41.36 10c-1.52 1.53-3.11 3-4.72 4.43v-27.41a83.67 83.67 0 0 0 0-98.66V61.9l-1.33-2.2-1.29 2.2v.41a83.89 83.89 0 0 0-7.61-8.18v-1.92l-1.75-2.43v2.76a83.83 83.83 0 0 0-16.12-11.25v-1.46l-1.75-2.56v3.1a83.31 83.31 0 0 0-7.64-3.4V33l-1.3-2.22L142.3 33v3a83.33 83.33 0 0 0-11.69-3.12v-14l-.89-1.12-.87 1.12v13.7c-.9-.15-1.8-.29-2.7-.41V13.41a102.23 102.23 0 0 1 61 173.9zm-.13-80.11v-1h-1.15v1h-1v1.15h1v2.2l-3.44 5.26V96.09l7.94 11.35v8.28l-3.35-5.1v-2.2h1v-1.15zm-.57 4.57l3.92 6v2.79a3.14 3.14 0 0 0-1.73-.53 2.84 2.84 0 0 0-2.19 1 2.9 2.9 0 0 0-2.22-1 3.26 3.26 0 0 0-1.79.54V118zm2.81 20.43a2.8 2.8 0 0 0-1.58-2.51h2.68v5h-2.65a2.8 2.8 0 0 0 1.57-2.48zm-2.79 2.21a2.21 2.21 0 1 1 2.2-2.21 2.21 2.21 0 0 1-2.18 2.22zM187 128v-5.35a1.52 1.52 0 0 1 1.61-1.4 1.94 1.94 0 0 1 1.24.45 1.28 1.28 0 0 1 .49.88V128zm-4.09-6.31a2 2 0 0 1 1.29-.45 1.55 1.55 0 0 1 1.65 1.41V128h-3.44v-5.43a1.26 1.26 0 0 1 .53-.88zm2.32 8.06a2.79 2.79 0 0 0 0 5h-2.79v-5zm6.87 6.77V91.88l-.89-1.41-.86 1.41v13.56l-7.94-11.35V67.7a82.52 82.52 0 0 1 0 94.71v-25.89zM187.57 117l-1.11-1.78-1.12 1.78 1.11 1.78zm-36.8-88.81l1.07.48.47-1 1 .47.48-1.07-1-.47.47-1-1.07-.6-.47 1-1-.47-.48 1.07 1 .47zm-.21 3l-1.07-.48-.47 1-1-.47-.48 1.07 1 .47-.47 1 1.07.48.47-1 1 .47.48-1.07-1-.47zm43.36 28.64h.07v-1.85l-1.78-.25h-.05v.73L186.32 63l-.29-.11-.14-1.55 5.24-4c.43-.33.66-.11.66-.11l.07-.06v-2.11l-1.88-.23h-.07a1.66 1.66 0 0 1 .25.95l-5.41 4.15a.58.58 0 0 1-.57.1l-.07.06.32 2.62A29.88 29.88 0 0 1 188 64l5.25-4a.63.63 0 0 1 .68-.17zm-29.6-21.11l-1-.65-.64 1-.95-.63-.65 1 .95.64-.64.95 1 .65.64-.95.95.64.65-1-.95-.63zM127 74.07l1.11 1.78 1.11-1.78-1.11-1.78zm34.36-39v-.09l-1.86-2 3.77-1.44-.19-.4-.58.26A14.39 14.39 0 0 1 161 29a27 27 0 0 1-4.32-.68l-1.3 2.52a.65.65 0 0 1-.64.31v.07l2 2.34-4.91 1.94.23.29.94-.34a14.39 14.39 0 0 1 2 2.32 23.83 23.83 0 0 1 4.41.41l1.46-2.82a.58.58 0 0 1 .5-.29zM157 37.48h-.34a20.24 20.24 0 0 0-2.12-2.54l3.25-1.3.77.84zm1.28-4.48l-.78-1 1.41-2.72h.2a20.69 20.69 0 0 0 1.81 2.72zm25.9 15.43l.07-.07-.5-2.34-1.86-.12-.33-2a9.53 9.53 0 0 1-1.94 0l-.05.06c.29.28.55.81.45.91l-4.84 5.05a.61.61 0 0 1-.62.19l-.05.06.23 1.84h1.79l-.12-.72 4.81-5 .83.07.25 1.08-4.63 4.82c-.38.4-.64.21-.64.21l-.07.07.36 2.08 1.9-.05.06-.06a1.68 1.68 0 0 1-.39-.9l4.72-4.92a.58.58 0 0 1 .57-.27zm3.22 4.44a.58.58 0 0 1 .55-.15l.07-.06-.1-2.12a7.41 7.41 0 0 1-1.92-.14l-.06.05s.66.69.26 1.07l-5 4.47c-.41.37-.66.17-.66.17l-.07.07.2 2.1 1.9.08h.06a1.61 1.61 0 0 1-.32-.93zm-14.62-5.23s4.06-5.18 4.32-5.5a.62.62 0 0 1 .59-.25v-.06l-.41-1.8-1.78.2v.05l.19.7-4.29 5.47h-.85l-.35-1 4.12-5.26c.34-.43.62-.28.62-.28l.05-.07-.56-2-1.88.24v.07a1.6 1.6 0 0 1 .47.86l-4.21 5.36a.57.57 0 0 1-.52.24l-.07.07.74 2.28 1.87-.06.52 1.94a9.78 9.78 0 0 1 1.93-.19v-.07c-.28-.33-.6-.83-.51-.94zM96.14 213.18l2-1.52v-.75a19.25 19.25 0 0 0-2.3 1.06 4.84 4.84 0 0 0 .3 1.21zM191.48 49.5H189s-.36.46-.48.58a19.22 19.22 0 0 0 2.47.54 4.86 4.86 0 0 0 .49-1.12zm-82.75-24.2l-1.11-1.78-1.12 1.78 1.11 1.78zM105.19 41l-1.11-1.78L103 41l1.11 1.78zm-61.45 92.75v-.92h.92v-1.15h-.92v-.92h-1.15v.92h-.92v1.15h.92v.92zM119.41 41l-1.11-1.78-1.11 1.78 1.11 1.78zM116 22.09l-1.11-1.78-1.11 1.78 1.11 1.78zM42.09 117l1.11 1.78 1.12-1.78-1.11-1.78zm81-91.61l-1.09-1.8-1.11 1.78 1.11 1.78zM48.31 50.71l.06.06 2.36-.6.65 3.91A8.26 8.26 0 0 1 54 53.3a15.51 15.51 0 0 1 1.16-3.3L53 47.66a.59.59 0 0 1-.15-.56l-.06-.1-2 .64-.49-3.14a9.4 9.4 0 0 1-2.7.34A16.77 16.77 0 0 1 46.25 48l1.92 2.08a.61.61 0 0 1 .14.63zM51.85 49l2.29 2.49-.07.26a13.58 13.58 0 0 0-2.55.61L51 49.29zm-4.39-2.59a15 15 0 0 0 2.71-.26l.34 2.49-1 .18-2.08-2.25zm10.43-5.62a5.79 5.79 0 0 0-.47 2.93 4.71 4.71 0 0 1 2.64 0v-3a5.57 5.57 0 0 1 .76-2.83l.53-.81a5.18 5.18 0 0 1 2.41.09v-2.22a3.69 3.69 0 0 1 .61-2.43H65c2 0 3.4-.07 4.37-.84a8 8 0 0 0-.7 3.12v2.78l-.14.16a3.3 3.3 0 0 1-1.92.78H64a7.35 7.35 0 0 1 0 2.42 5.37 5.37 0 0 0 2.26-.36 5.15 5.15 0 0 0-.4 2.42 5.63 5.63 0 0 1 2.72 0v-2.88a5 5 0 0 1 .35-2.23 5.46 5.46 0 0 1 2.1 0v-4.82c0-.89-.19-3.33.5-4.38l.85-1.29-.31-.21-.25.38-.82 1.29-.12.17a4.18 4.18 0 0 1-3.2 1.06h-1.75c-.86 0-1.36-.4-1.36-.69h-.49v2.71c-.14.1-.39.3-.69.55a3.4 3.4 0 0 1-1.93.79h-2.12a6.5 6.5 0 0 1 0 2.28 4.94 4.94 0 0 0 1.91-.24 4.2 4.2 0 0 0-.2 1.35l-.58.88a3.74 3.74 0 0 1-2.22 1.09h-3a7.34 7.34 0 0 1 0 2.41 6.65 6.65 0 0 0 2.64-.41zm21.24-9.63a5 5 0 0 0-.51 2.54 5.6 5.6 0 0 1 2.72 0v-2.81a5.27 5.27 0 0 1 .33-2.19l1-1.53a5.8 5.8 0 0 0 2.64-.55 4.47 4.47 0 0 0-.51 2.4 5.17 5.17 0 0 1 2.49 0v-2.6a3.93 3.93 0 0 1 .36-2.12l1.45-2.19h2.85l-1.47 1.73a4.33 4.33 0 0 0-1 3.22 5.4 5.4 0 0 1 2.61 0v-2.7a4.7 4.7 0 0 1 .35-2.17 4.71 4.71 0 0 1 3.46 2l.32-.19-1.48-2.4a5.12 5.12 0 0 0-4.34-2h-7.33a2.48 2.48 0 0 1 .25 2.16 3.56 3.56 0 0 1-2.12 1h-3a7.35 7.35 0 0 1 0 2.42c1.83 0 3.25-.3 4.42-1.86l1-1.32h5.05l-1 1.55a3.76 3.76 0 0 1-2.23 1.09h-3a7.12 7.12 0 0 1 0 2.1L81.6 28a3.62 3.62 0 0 1-2.17 1h-2.57a7.28 7.28 0 0 1 0 2.41 5.36 5.36 0 0 0 2.27-.23zm11.06 88.67h1.15v-.92h.92v-1.15h-.92v-.92h-1.15v.92h-.92v1.15h.92zm1.64-39.33l-1.11-1.78-1.11 1.78 1.11 1.78zm7.06 46.26H100v-.92h1v-1.15h-1v-.92h-1.1v.92H98v1.15h.92zm2.64-54.49l-1.11 1.78 1.11 1.78 1.11-1.78zm28.07 54.5h1.15v-.92h.92v-1.15h-.92v-.92h-1.15v.92h-.92v1.15h.92zm-88-77.11a18.66 18.66 0 0 0 .29-2.51 4.65 4.65 0 0 0-1.19-.38l.3 2.49a7.14 7.14 0 0 1 .64.43zm87.92 10.1h1.15v-1.12h1.15v-1.15h-1.15v-1.16h-1.15v1.15h-1.16v1.15h1.16zM126.69 41l-1.11-1.78-1.11 1.78 1.11 1.78zm-1.52 18.8h1.15v-1.16h1.16v-1.15h-1.16v-1.16h-1.15v1.16H124v1.15h1.16zm-34.43 61.37a2.79 2.79 0 1 0-2.8-2.8 2.8 2.8 0 0 0 2.8 2.8zm0-5a2.21 2.21 0 1 1-2.21 2.21 2.21 2.21 0 0 1 2.21-2.21zm-47-60.4l-.07-.06-1.9.92-.95-3a9.31 9.31 0 0 1-2.62.74 16.75 16.75 0 0 1-.88 3.29l2.2 1.78a.62.62 0 0 1 .24.6l.06.05 2.25-.94 1.21 3.77a8.49 8.49 0 0 1 2.51-1.15 15.84 15.84 0 0 1 .64-3.44l-2.47-2a.59.59 0 0 1-.19-.57zM40.7 58l-2.39-1.93v-.15a15.08 15.08 0 0 0 2.69-.68l.7 2.42zm5 2.24a13.76 13.76 0 0 0-2.43 1l-1-3 .81-.38 2.63 2.12zM94.09 206h-2.92a1.34 1.34 0 0 1-.89-.36 3.12 3.12 0 0 0 0-.58 3.19 3.19 0 0 0-.44-1.5 4.29 4.29 0 0 0 1.31.2h1.12a2.55 2.55 0 0 1-.3-1.3 6.08 6.08 0 0 1 .16-1.3h-3.67a2.22 2.22 0 0 1-1.68-1l-.1-.14c-.38-.57-.84-1.23-1-1.57h-4a3.64 3.64 0 0 0 1.64-1.34c.32-.45.69-1 .69-1l-1.85-1s-1.07 1.67-1.43 2.16a2.66 2.66 0 0 1-2.2 1.24h-.36a4.6 4.6 0 0 1-4-1.9l-.34.2 1.56 2.38 1.85 2.81a6.87 6.87 0 0 1 .66 3.28v2.41a9.88 9.88 0 0 1 2.54 0v-1.35a3.78 3.78 0 0 0-.6-1.8 3.76 3.76 0 0 0 1.51.31h1.28a4.89 4.89 0 0 1-.13-1.21 5 5 0 0 1 .13-1.11h-3.28a3 3 0 0 1-2-1.1l-.84-1.27a7.31 7.31 0 0 0 3.68.66h6.51a8.06 8.06 0 0 1 .68 3.56v1.47a8.27 8.27 0 0 1 2.65 0v.05a3.58 3.58 0 0 1 .26 1.65v2.5a4.47 4.47 0 0 1 2.17 0 3.9 3.9 0 0 0-.45-2.33 3.1 3.1 0 0 0 1 .17h1.12a1.86 1.86 0 0 1-.25-1 2.88 2.88 0 0 1 .21-.89zM31.14 84.33c.43.72.1.94-.76 1.64l-6.17-2.15-.21-.38a11.59 11.59 0 0 1 2.3-.59v-.09a6.84 6.84 0 0 1-1-1.62h-.09l-2.32.76.76 1.68-1.65.92a9.51 9.51 0 0 1 .8 1.76h.08c.13-.39.5-.84.64-.78l6.34 2.21a.61.61 0 0 1 .43.49h.08a15 15 0 0 1 2.19-1.88l-1.1-2.19zm19.35-29.6l-.06-.05a1.63 1.63 0 0 1-.89.41l-5-4.57a.58.58 0 0 1-.2-.54l-.07-.07-2.09.32a7.48 7.48 0 0 1 .06 1.93l.06.05s.63-.73 1-.36l4.95 4.48c.4.37.23.64.23.64l.07.06 2.07-.41zM35.1 76.59a1.65 1.65 0 0 1-.71.68l-6.77-3a.58.58 0 0 1-.36-.45h-.09l-2.37 1.63a11.83 11.83 0 0 1 .57 3.55l5.85 2.58a.62.62 0 0 1 .39.52h.07L34 80.65l.9 1.86L36.79 81l-1.62-4.41zM32 79.9l-6.55-2.85v-.09L27 76l6.11 2.69.24.51zm2.32.79l-.83-1.81 2.24 1zM37.5 71c.3.79-.36 1.08-1.6 1.85l-2-1.15a23.25 23.25 0 0 1-.82-3.95h-3.52a17.38 17.38 0 0 1-.26 3.45l5.85 3.3a.6.6 0 0 1 .33.55h.07a18.72 18.72 0 0 1 3-1.83l-.71-2.37zm-7.6-1.54l3-.08s.28 1.18.52 2zm11.17-2.77l2-.76-.46-1.93h-.07a1.65 1.65 0 0 1-.81.56L36 60.9a.58.58 0 0 1-.29-.5l-.08-.05-2.2 1 .25 1.85-1.87.72a9.72 9.72 0 0 1 .38 1.9h.07c.22-.34.68-.7.8-.62L39 68.94a.62.62 0 0 1 .31.57h.07l1.7-.51-.37-1.75h-.06l-.68.26-5.87-3.8-.1-.83 1-.46L40.66 66c.46.29.34.59.34.59zm29.54 32l1.11 1.78 1.11-1.78-1.11-1.78zM81 100.47l1.11-1.78L81 96.91l-1.11 1.78zm-27.18 0l1.11-1.78-1.13-1.83-1.11 1.78zm-28-8A23.28 23.28 0 0 1 24 88.82h-.09l-3.32.91a16.77 16.77 0 0 1 .63 3.4l6.49 1.7a.62.62 0 0 1 .46.45h.08a18.77 18.77 0 0 1 2.48-2.55l-1.33-2.11-.31.21C29.58 91.52 29 92 28 93zm-4.41-1.16l2.84-.83s.57 1.07 1 1.84zM64 98.64l-1.11-1.78-1.09 1.78 1.11 1.78zm-41 13a23.06 23.06 0 0 1-2.66-3h-.09l-3 1.72a16.93 16.93 0 0 1 1.47 3.13h6.71a.62.62 0 0 1 .57.32h.08a18.52 18.52 0 0 1 1.74-3.09L26.09 109l-.24.28c.65.54.22 1.12-.48 2.39zm-4.56 0l2.56-1.5s.82.89 1.46 1.52zm10.6 27.58l-6.22 2.06a.59.59 0 0 1-.57-.09h-.09l-.66 2.25 2 1.17-3.18 1.05-.84 1.72a9.36 9.36 0 0 1 1.72.9h.07c-.13-.39-.11-1 0-1l9.52-3.16c.52-.17.66.1.66.1h.09l.66-2-1.71-.84h-.07a1.69 1.69 0 0 1-.08 1l-6.54 2.17-.74-.43.31-1.09 6.75-2.24a7.44 7.44 0 0 1 2.32-.58v-.17s-2.03-1.23-3.37-.79zm-13.14-32.3h.1s.09-1 .64-.89l9.52 1.14c.54.07.56.38.56.38h.09l1.42-1.55-1.23-1.44a1.65 1.65 0 0 1-.49.85l-9.65-1.15a.59.59 0 0 1-.48-.32h-.09l-1.53 1.47a7.36 7.36 0 0 1 1.14 1.51zm9.61 29a23.32 23.32 0 0 1-3.4-2.17h-.09l-2.38 2.49a16.91 16.91 0 0 1 2.29 2.6l6.44-1.88a.63.63 0 0 1 .63.15h.08a18.86 18.86 0 0 1 .81-3.46l-2.19-1.15-.15.34c.77.33.52 1 .21 2.43zm-4.37 1.28l2-2.18s1 .62 1.82 1.06zm-4.57-35.8c.08-.4.38-.9.52-.87l9.28 1.78a.61.61 0 0 1 .5.42h.08l2-2.1-1.42-3.4L21.27 96a.6.6 0 0 1-.46-.35h-.09l-1.93 2 .92 1.49-2.71-.47-1.57 1.09a9.59 9.59 0 0 1 1.06 1.62zM21 97.83l7 1.31v.05l-1.21 1.33-6.7-1.26-.17-.26zm4.79 27.11l1.27 1.3a6 6 0 0 0 1.28-1.24l-1.27-1.3a5.59 5.59 0 0 0-1.29 1.24zm-7.53 6.21l1.65 1H20a1.64 1.64 0 0 1 .21-1l3.08-2.34 6.2 2.06a17.44 17.44 0 0 1-.89-2c-3.35-1-9.47-3.12-10.12-3.48h-.08l-.88 1.63 1.47 1H19c-.06-.33.32-.65.32-.65l2.3.74-2.86 2zM31 148.77a10.72 10.72 0 0 0 .19 2.84c-1-.9-2.07-1-3.73-1a7.92 7.92 0 0 1 0 2.68h2.36a6 6 0 0 1 3.18 1.13l.6.91a3.86 3.86 0 0 0-2.21-.4 6.52 6.52 0 0 1 0 2.24h2.08a3.13 3.13 0 0 1 1.75.67v2.08a9.78 9.78 0 0 0 1.88 5.35l.27.4c-1-.71-1.84-.62-3.72-.59l-.23-.3-3.17-4.78a4.08 4.08 0 0 1-.34-2v-2.41a5.06 5.06 0 0 1-2.48 0 3.41 3.41 0 0 0 .63 2.43 6 6 0 0 0-2.25-.29 6.47 6.47 0 0 1 0 2.24h2.54a2.73 2.73 0 0 1 2.08 1l.91 1.38c-.9-.72-1.81-.83-3.38-.83a7.84 7.84 0 0 1 0 2.75h2.84a3.81 3.81 0 0 1 2.24.92 3.64 3.64 0 0 1 .18 2.28l2.08.07a6.54 6.54 0 0 1 5 2.69l.32.48a7.5 7.5 0 0 0 .32 1.71c-1.77-2.11-2.63-2-6.42-2a6.72 6.72 0 0 1 .07 2.32h3.24a5.84 5.84 0 0 1 4.47 2.49l.23.35c.81 1.21 1.48 2.13 1.48 2.13l.33-.21s-.54-.76-.79-1.17c-.54-.85-.58-3.36-.58-4.68V162.96a7.61 7.61 0 0 1-2.39-.09v7l-1.74-2.63-.71-1.13c-.54-.85-.56-3.46-.56-4.79v-.85c0-.58.05-2.64.84-2.64v-.44h-3l-.09-.11-1.55-2.33a7 7 0 0 1-.38-2.32v-3.84a4.87 4.87 0 0 1-2.39-.02zm-11.75-27.15l6.51-.51a.63.63 0 0 1 .59.27h.08l1.42-2.56-2.26-2.91-7.05.55a.59.59 0 0 1-.53-.22h-.09c-1.1 2-2.11 3.61-3.41 5.63a7.14 7.14 0 0 1 1.56 1.26h.08c0-.49 1.8-3.36 1.8-3.36zm-.38-3.37l7.59-.6-.83 1.6-7.23.57-.3-.39z" fill="#5a0f09"></path></svg>
